<?xml version="1.0" encoding="UTF-8"?>
<svg width="48px" height="48px" viewBox="0 0 48 48" version="1.1" xmlns="http://www.w3.org/2000/svg" xmlns:xlink="http://www.w3.org/1999/xlink">
    <title>至于底层</title>
    <g id="Nearhub-白板模块" stroke="none" stroke-width="1" fill="none" fill-rule="evenodd">
        <g id="白板-已登录模式备份-2" transform="translate(-972.000000, -933.000000)" fill="#FFFFFF" fill-rule="nonzero">
            <g id="至于底层" transform="translate(972.000000, 933.000000)">
                <path d="M23.0909062,47.7895019 L1.10280275,36.7895019 C0.426725826,36.44973 0,35.7574825 0,35.0005019 C0,34.2435213 0.426725826,33.5512737 1.10280275,33.2115019 L23.0909062,22.2115019 C23.653713,21.9294994 24.3164651,21.9294994 24.879272,22.2115019 L46.8673754,33.2115019 C47.5443709,33.5503604 47.9719753,34.2427756 47.9719753,35.0001686 C47.9719753,35.7575615 47.5443709,36.4499767 46.8673754,36.7888353 L24.879272,47.7888353 C24.6017389,47.928024 24.2955357,48.0001691 23.9850891,48.0001691 C23.6792546,48.0001691 23.3727537,47.9301686 23.0909062,47.7895019 Z M23.9638737,25.4443809 L43.1475423,35.0000845 L23.9638737,46.0000845 L6.4665674,35.0000845 L23.9638737,25.4443809 Z" id="形状"></path>
                <g id="gis图层">
                    <path d="M23.9873988,26.0001691 C23.6815643,26.0001691 23.3750634,25.9301686 23.0932159,25.7895019 L1.10511249,14.7895019 C0.429035557,14.44973 0.00230973101,13.7574825 0.00230973101,13.0005019 C0.00230973101,12.2435213 0.429035557,11.5512737 1.10511249,11.2115019 L23.0932159,0.211501884 C23.6560228,-0.070500628 24.3187749,-0.070500628 24.8815817,0.211501884 L46.8696851,11.2115019 C47.5466806,11.5503604 47.974285,12.2427756 47.974285,13.0001686 C47.974285,13.7575615 47.5466806,14.4499767 46.8696851,14.7888353 L24.8815817,25.7888353 C24.6040486,25.928024 24.2978455,26.0001691 23.9873988,26.0001691 L23.9873988,26.0001691 Z M6.46887713,13.0001686 L23.9873988,21.7641686 L41.5059205,13.0001686 L23.9873988,4.23616857 L6.46887713,13.0001686 Z" id="形状"></path>
                    <path d="M23.9873988,37.0001695 C23.6815643,37.0001695 23.3750634,36.9301686 23.0932159,36.7895019 L1.10511249,25.7895019 C0.117793354,25.2953911 -0.282247626,24.0940219 0.21159595,23.1061685 C0.705439526,22.1183152 1.90615914,21.7180578 2.89347827,22.2121686 L23.9873988,32.7641686 L45.0813194,22.2115019 C45.7215039,21.8795524 46.4907511,21.9182942 47.0943841,22.3128865 C47.6980171,22.7074788 48.0424705,23.3967583 47.9957938,24.1166814 C47.9491172,24.8366044 47.5185455,25.4755803 46.8690188,25.7888353 L24.8809154,36.7888353 C24.6036428,36.9280862 24.2976404,37.0004615 23.9873988,37.0001695 L23.9873988,37.0001695 Z" id="路径"></path>
                </g>
            </g>
        </g>
    </g>
</svg>