<?xml version="1.0" encoding="UTF-8"?>
<svg width="89px" height="38px" viewBox="0 0 89 38" version="1.1" xmlns="http://www.w3.org/2000/svg" xmlns:xlink="http://www.w3.org/1999/xlink">
    <title>编组 9</title>
    <g id="Nearhub-白板模块" stroke="none" stroke-width="1" fill="none" fill-rule="evenodd">
        <g id="白板-已登录模式备份" transform="translate(-2517.000000, -1087.000000)" fill="#FFFFFF" fill-rule="nonzero">
            <g id="编组-9" transform="translate(2517.000000, 1087.000000)">
                <g id="字体加粗">
                    <path d="M26.1545591,21.7101274 C25.1086186,20.0770037 23.5654029,18.9908079 21.5264234,18.4530721 L21.5264234,18.3488953 C22.6071279,17.8280116 23.5155242,17.2458474 24.2516124,16.6024028 C24.9892121,15.9941945 25.5545037,15.3507499 25.9489986,14.673601 C26.7198507,13.2488308 27.0886505,11.7551201 27.0538866,10.1909369 C27.0538866,7.13304306 26.1197952,4.67416546 24.2516124,2.81430414 C22.4000559,0.972826963 19.6310341,0.0352362522 15.9460587,0 L1.78994568e-15,0 L1.78994568e-15,38 L17.2066286,38 C20.1555158,38 22.6146853,37.0011289 24.5871598,35.0018545 C26.5762606,33.0899049 27.5874372,30.4931463 27.6206897,27.2100468 C27.6206897,25.2291566 27.1324833,23.3953395 26.1545591,21.7101274 Z M6.09728916,5.13376875 L15.3036819,5.13376875 C17.3774252,5.169005 18.9040147,5.68069666 19.8804274,6.67190776 C20.8749778,7.73205935 21.372253,9.02660861 21.372253,10.5555556 C21.372253,12.0845025 20.8749778,13.3530076 19.8804274,14.3610708 C18.9040147,15.4549266 17.3774252,16.0033866 15.3036819,16.0033866 L6.09728916,16.0033866 L6.09728916,5.13376875 Z M20.4729255,30.8072085 C19.4965129,31.9363006 17.9532971,32.5184648 15.8447898,32.553701 L6.09728916,32.553701 L6.09728916,21.1386873 L15.8432784,21.1386873 C17.9517857,21.1723915 19.4950014,21.7377036 20.4714141,22.8330914 C21.4478268,23.9453314 21.9375446,25.282777 21.9375446,26.8469602 C21.9375446,28.3743751 21.4493382,29.6949686 20.4729255,30.8072085 L20.4729255,30.8072085 Z" id="形状"></path>
                </g>
                <g id="字体斜体" transform="translate(28.643678, 0.000000)">
                    <path d="M26.0862069,-1.29810692e-15 L12.2758621,-1.29810692e-15 C11.4283906,-1.29810692e-15 10.7413793,0.654353058 10.7413793,1.46153846 C10.7413793,2.26872387 11.4283906,2.92307692 12.2758621,2.92307692 L16.8946552,2.92307692 L5.84944828,35.0769231 L1.53448276,35.0769231 C0.687011332,35.0769231 0,35.7312761 0,36.5384615 C0,37.3456469 0.687011332,38 1.53448276,38 L15.3448276,38 C16.192299,38 16.8793103,37.3456469 16.8793103,36.5384615 C16.8793103,35.7312761 16.192299,35.0769231 15.3448276,35.0769231 L10.8503276,35.0769231 L21.9047414,2.92307692 L26.0862069,2.92307692 C26.9336783,2.92307692 27.6206897,2.26872387 27.6206897,1.46153846 C27.6206897,0.654353058 26.9336783,-1.29810692e-15 26.0862069,-1.29810692e-15 Z" id="路径"></path>
                </g>
                <g id="字体下划线" transform="translate(57.287356, 0.000000)">
                    <path d="M27.5421007,0 L27.5421007,21.846692 C27.5273593,24.8772768 26.5698687,27.356183 24.6696289,29.2834107 C22.7841305,31.210596 20.2210222,32.2918996 16.9803038,32.527279 L15.8534314,32.5714286 C12.3328324,32.5714286 9.52667636,31.6225312 7.43492195,29.7247366 C5.34316753,27.826942 4.28256955,25.2156295 4.25312799,21.8908415 L4.25312799,0 L8.45133696,0 L8.45133696,21.7584353 C8.45133696,24.0828393 9.09211404,25.8923772 10.3736682,27.1870067 C11.6552224,28.4669196 13.4817964,29.1068549 15.8534314,29.1068549 C18.2545079,29.1068549 20.0884319,28.4669196 21.355286,27.1870067 C22.6368402,25.9070937 23.2776173,24.1049353 23.2776173,21.7804888 L23.2776173,0 L27.5421007,0 Z M0,35.625 C0,35.4376177 0.147898273,35.2857143 0.330340038,35.2857143 L31.3823036,35.2857143 C31.5647454,35.2857143 31.7126437,35.4376177 31.7126437,35.625 L31.7126437,37.6607143 C31.7126437,37.8480966 31.5647454,38 31.3823036,38 L0.330340038,38 C0.147898273,38 0,37.8480966 0,37.6607143 L0,35.625 Z" id="形状"></path>
                </g>
            </g>
        </g>
    </g>
</svg>