<?xml version="1.0" encoding="UTF-8"?>
<svg width="48px" height="48px" viewBox="0 0 48 48" version="1.1" xmlns="http://www.w3.org/2000/svg" xmlns:xlink="http://www.w3.org/1999/xlink">
    <title>拷贝</title>
    <g id="Nearhub-白板模块" stroke="none" stroke-width="1" fill="none" fill-rule="evenodd">
        <g id="白板-已登录模式备份-2" transform="translate(-1224.000000, -933.000000)" fill="#FFFFFF" fill-rule="nonzero">
            <g id="拷贝" transform="translate(1224.000000, 933.000000)">
                <path d="M40.4568,0 C42.457381,0 44.3760235,0.794727702 45.7906479,2.20935212 C47.2052723,3.62397654 48,5.54261899 48,7.54320003 L48,33.2568 C48,35.257381 47.2052723,37.1760235 45.7906479,38.5906479 C44.3760235,40.0052723 42.457381,40.8 40.4568,40.8 L38.4,40.8 L38.4,43.2 C38.4,44.4730391 37.8942872,45.6939379 36.9941126,46.5941125 C36.093938,47.4942872 34.8730392,48 33.6,48 L4.80000003,48 C3.52696087,48 2.30606207,47.4942872 1.40588744,46.5941126 C0.505712818,45.6939379 0,44.4730391 0,43.2 L0,14.4 C0,13.1269608 0.505712839,11.906062 1.40588746,11.0058874 C2.30606209,10.1057128 3.52696088,9.6 4.80000003,9.60000001 L7.19999999,9.60000001 L7.19999999,7.54320003 C7.19994341,3.54312309 10.3223431,0.238539533 14.316,0.0120000375 L14.7432,0 L40.4568,0 Z M19.2,19.2 C17.9832604,19.2 16.9591586,20.1108171 16.8168,21.3192 L16.8,21.6 L16.8,26.4 L12,26.4 C10.7301761,26.4014088 9.68120514,27.3917054 9.60678761,28.6593476 C9.53237008,29.9269898 10.4582634,31.0332217 11.7192,31.1832 L12,31.2 L16.8,31.2 L16.8,36 C16.8014086,37.2698241 17.7917052,38.3187953 19.0593476,38.3932129 C20.32699,38.4676304 21.433222,37.5417368 21.5832,36.2808 L21.6,36 L21.6,31.2 L26.4,31.2 C27.6698241,31.1985914 28.7187954,30.2082948 28.7932129,28.9406524 C28.8676304,27.67301 27.9417369,26.566778 26.6808,26.4168 L26.4,26.4 L21.6,26.4 L21.6,21.6 C21.6,20.2745166 20.5254834,19.2 19.2,19.2 L19.2,19.2 Z M40.4568,4.80000003 L14.7432,4.80000003 C13.2288,4.80000003 12,6.02880001 12,7.54320003 L12,9.60000001 L33.6,9.60000001 C36.2509668,9.60000001 38.4,11.7490332 38.4,14.4 L38.4,36 L40.4568,36 C41.8727999,36 43.0344,34.9296 43.1832,33.5568 L43.2,33.2568 L43.2,7.54320003 C43.2,6.02880001 41.9712,4.80000003 40.4568,4.80000003 Z" id="形状"></path>
            </g>
        </g>
    </g>
</svg>