<?xml version="1.0" encoding="UTF-8"?>
<svg width="45px" height="38px" viewBox="0 0 45 38" version="1.1" xmlns="http://www.w3.org/2000/svg" xmlns:xlink="http://www.w3.org/1999/xlink">
    <title>错误列表</title>
    <g id="Nearhub-白板模块" stroke="none" stroke-width="1" fill="none" fill-rule="evenodd">
        <g id="白板-已登录模式备份" transform="translate(-2666.000000, -1087.000000)" fill="#FFFFFF" fill-rule="nonzero">
            <g id="错误列表" transform="translate(2666.000000, 1087.000000)">
                <path d="M43.1181379,20.9001916 L14.7453135,20.9001916 C13.7053682,20.9001916 12.8637592,20.0503908 12.8637592,19.0002072 C12.8637592,17.9508522 13.7053681,17.1001191 14.7453135,17.1001191 L43.1181379,17.1001191 C44.1584936,17.1001191 45,17.9508004 45,19.0002072 C45,20.0503908 44.1584936,20.9001916 43.1181379,20.9001916 L43.1181379,20.9001916 Z M43.1181379,5.70010878 L14.7453135,5.70010878 C13.7053682,5.70010878 12.8637592,4.84937563 12.8637592,3.80007254 C12.8637592,2.75082122 13.7053681,1.90008807 14.7453135,1.90008807 L43.1181379,1.90008807 C44.1584936,1.90008807 45,2.75082122 45,3.80007254 C45,4.84937563 44.1584936,5.70010878 43.1181379,5.70010878 L43.1181379,5.70010878 Z M3.76341649,38 C1.685167,38 1.42453406e-15,36.2985855 1.42453406e-15,34.2002382 C1.42453406e-15,32.1015802 1.68516695,30.4002693 3.76341649,30.4002693 C5.84146084,30.4002693 7.52657651,32.101632 7.52657651,34.2002382 C7.52657651,36.2986373 5.84146079,38 3.76341649,38 L3.76341649,38 Z M3.76341649,22.8001761 C1.685167,22.8001761 1.42453406e-15,21.0985027 1.42453406e-15,19.000259 C1.42453406e-15,16.9014974 1.68516695,15.2001347 3.76341649,15.2001347 C5.84146084,15.2001347 7.52657651,16.9014974 7.52657651,19.000259 C7.52657651,21.0984509 5.84146079,22.8001761 3.76341649,22.8001761 L3.76341649,22.8001761 Z M3.76341649,7.60004142 C1.685167,7.60004142 1.42453406e-15,5.89867873 1.42453406e-15,3.80007249 C1.42453406e-15,1.70141447 1.68516695,0 3.76341649,0 C5.84146084,0 7.52657651,1.70136269 7.52657651,3.80007249 C7.52657651,5.89873056 5.84146079,7.60004142 3.76341649,7.60004142 L3.76341649,7.60004142 Z M14.7453135,32.2999948 L43.1181379,32.2999948 C44.1584936,32.2999948 45,33.1498475 45,34.2000311 C45,35.2502147 44.1584936,36.1000673 43.1181379,36.1000673 L14.7453135,36.1000673 C13.7053682,36.1000673 12.8637592,35.2502147 12.8637592,34.2000311 C12.8637592,33.1498475 13.7053169,32.2999948 14.7453135,32.2999948 L14.7453135,32.2999948 Z" id="形状"></path>
            </g>
        </g>
    </g>
</svg>