<?xml version="1.0" encoding="UTF-8"?>
<svg width="40px" height="48px" viewBox="0 0 40 48" version="1.1" xmlns="http://www.w3.org/2000/svg" xmlns:xlink="http://www.w3.org/1999/xlink">
    <title>剪切</title>
    <g id="Nearhub-白板模块" stroke="none" stroke-width="1" fill="none" fill-rule="evenodd">
        <g id="白板-已登录模式备份-2" transform="translate(-1332.000000, -933.000000)" fill="#FFFFFF" fill-rule="nonzero">
            <g id="剪切" transform="translate(1332.000000, 933.000000)">
                <path d="M37.2798309,0.865283882 L20.3654257,21.9355133 L2.55280526,0 C2.55280526,0 -2.9857657,6.63843836 2.25324425,13.708488 C7.49238784,20.7804701 20.3654925,35.0662864 20.3654925,35.0662864 L39.0757269,12.1217047 C39.0757269,12.1217691 42.0700005,6.78222288 37.2798309,0.865283882 Z M20.2287088,30.6670084 C18.7808863,30.6670084 17.607834,29.5360582 17.607834,28.1401502 C17.607834,26.7444354 18.7808195,25.6134207 20.2287088,25.6134207 C21.676665,25.6134207 22.8497841,26.7444354 22.8497841,28.1401502 C22.8497841,29.5360582 21.676665,30.6670084 20.2287088,30.6670084 Z M31.2610803,31.1868745 C26.4451844,31.1868745 22.5410686,34.9506533 22.5410686,39.5934373 C22.5410686,44.2362213 26.4452512,48 31.2610803,48 C36.0769094,48 39.9811589,44.2361568 39.9811589,39.5934373 C39.9811589,34.9507177 36.077043,31.1868745 31.2610803,31.1868745 L31.2610803,31.1868745 Z M31.2610803,43.825031 C28.836995,43.825031 26.8717732,41.930451 26.8717732,39.5935017 C26.8717732,37.2565523 28.836995,35.3619723 31.2610803,35.3619723 C33.6851657,35.3619723 35.6504543,37.2565523 35.6504543,39.5935017 C35.6504543,41.930451 33.6852325,43.825031 31.2610803,43.825031 Z M9.40067766,31.1868745 C4.58471494,31.1868745 0.680599081,34.9506533 0.680599081,39.5934373 C0.680599081,44.2362213 4.58484858,48 9.40067766,48 C14.2165067,48 18.1206894,44.2361568 18.1206894,39.5934373 C18.1206894,34.9507177 14.2165067,31.1868745 9.40067766,31.1868745 Z M9.40067766,43.825031 C6.97652548,43.825031 5.01137053,41.930451 5.01137053,39.5935017 C5.01137053,37.2565523 6.9765923,35.3619723 9.40067766,35.3619723 C11.824763,35.3619723 13.7899848,37.2565523 13.7899848,39.5935017 C13.7899848,41.930451 11.824763,43.825031 9.40067766,43.825031 Z" id="形状"></path>
            </g>
        </g>
    </g>
</svg>