<?xml version="1.0" encoding="UTF-8"?>
<svg width="39px" height="48px" viewBox="0 0 39 48" version="1.1" xmlns="http://www.w3.org/2000/svg" xmlns:xlink="http://www.w3.org/1999/xlink">
    <title>锁定</title>
    <g id="Nearhub-白板模块" stroke="none" stroke-width="1" fill="none" fill-rule="evenodd">
        <g id="白板-已登录模式备份-2" transform="translate(-1224.000000, -1244.000000)">
            <g id="锁定" transform="translate(1224.000000, 1244.000000)">
                <g id="解锁备份-4" transform="translate(0.000000, 19.318598)" fill="#FFFFFF" fill-rule="nonzero">
                    <path d="M32.1395218,28.6814025 L6.02756681,28.6814025 C2.707173,28.6814025 0.0123769339,25.7991923 0,22.2352275 L0,6.46972537 C0,2.90576055 2.68523207,0.0126809999 6.00562588,0 L32.1175809,0 C35.4379747,0.0126809999 38.1232068,2.90576055 38.1232068,6.46972537 L38.1232068,22.2346237 C38.111955,25.7804728 35.443038,28.6554366 32.1395218,28.6814025 Z M23.2618847,10.6272818 C23.2680731,8.47392721 21.8554149,6.61646266 19.8886076,6.1931588 C17.9218003,5.76985495 15.9504923,6.89846394 15.1825598,8.88696549 C14.4146273,10.8760709 15.0644163,13.1701242 16.7336146,14.3639497 L16.7336146,20.0861 C16.745429,21.4574595 17.7845288,22.5619142 19.062166,22.5619142 C19.6834384,22.5744157 20.2835911,22.3198435 20.7290598,21.8548527 C21.1745286,21.3898619 21.4283502,20.7530358 21.4340366,20.0861 L21.4340366,14.3639497 C22.5884187,13.5260719 23.2747605,12.1229841 23.2618847,10.6272818 L23.2618847,10.6272818 Z" id="形状"></path>
                </g>
                <path d="M19,2 C21.7614237,2 24.2614237,3.11928813 26.0710678,4.92893219 C27.8807119,6.73857625 29,9.23857625 29,12 L29,12 L29,35 C29,37.7614237 27.8807119,40.2614237 26.0710678,42.0710678 C24.2614237,43.8807119 21.7614237,45 19,45 C16.2385763,45 13.7385763,43.8807119 11.9289322,42.0710678 C10.1192881,40.2614237 9,37.7614237 9,35 L9,35 L9,12 C9,9.23857625 10.1192881,6.73857625 11.9289322,4.92893219 C13.7385763,3.11928813 16.2385763,2 19,2 Z" id="矩形" stroke="#FFFFFF" stroke-width="4"></path>
            </g>
        </g>
    </g>
</svg>