<?xml version="1.0" encoding="UTF-8"?>
<svg width="48px" height="48px" viewBox="0 0 48 48" version="1.1" xmlns="http://www.w3.org/2000/svg" xmlns:xlink="http://www.w3.org/1999/xlink">
    <title>解锁</title>
    <g id="Nearhub-白板模块" stroke="none" stroke-width="1" fill="none" fill-rule="evenodd">
        <g id="白板-已登录模式备份-2" transform="translate(-1323.000000, -1244.000000)" fill="#FFFFFF" fill-rule="nonzero">
            <g id="解锁" transform="translate(1323.000000, 1244.000000)">
                <path d="M27.5459916,20.897684 L27.5459916,13.1671049 C27.5459916,8.65206507 30.9558368,4.99208696 35.1623066,4.99208696 C39.3682138,4.99208696 42.7780591,8.65206507 42.7780591,13.1671049 C42.7780591,14.7147907 43.9471167,15.9696059 45.3890295,15.9696059 C46.8309423,15.9696059 48,14.7147907 48,13.1671049 C47.7175809,5.80850181 42.0776371,0 35.216315,0 C28.354993,0 22.7156118,5.80910566 22.4326301,13.1671049 L22.4326301,20.897684" id="路径"></path>
                <path d="M32.1395218,48 L6.02756681,48 C2.707173,48 0.0123769339,45.1177899 0,41.5538251 L0,25.7883229 C0,22.2243581 2.68523207,19.3312785 6.00562588,19.3185975 L32.1175809,19.3185975 C35.4379747,19.3312785 38.1232068,22.2243581 38.1232068,25.7883229 L38.1232068,41.5532212 C38.111955,45.0990703 35.443038,47.9740341 32.1395218,48 Z M23.2618847,29.9458793 C23.2680731,27.7925248 21.8554149,25.9350602 19.8886076,25.5117563 C17.9218003,25.0884525 15.9504923,26.2170615 15.1825598,28.205563 C14.4146273,30.1946684 15.0644163,32.4887217 16.7336146,33.6825473 L16.7336146,39.4046975 C16.745429,40.7760571 17.7845288,41.8805118 19.062166,41.8805118 C19.6834384,41.8930132 20.2835911,41.638441 20.7290598,41.1734503 C21.1745286,40.7084595 21.4283502,40.0716333 21.4340366,39.4046975 L21.4340366,33.6825473 C22.5884187,32.8446694 23.2747605,31.4415817 23.2618847,29.9458793 L23.2618847,29.9458793 Z" id="形状"></path>
            </g>
        </g>
    </g>
</svg>