<?xml version="1.0" encoding="UTF-8"?>
<svg width="66px" height="48px" viewBox="0 0 66 48" version="1.1" xmlns="http://www.w3.org/2000/svg" xmlns:xlink="http://www.w3.org/1999/xlink">
    <title>编组 3</title>
    <g id="Nearhub-白板模块" stroke="none" stroke-width="1" fill="none" fill-rule="evenodd">
        <g id="白板-已登录模式备份" transform="translate(-2173.000000, -1082.000000)" fill-rule="nonzero">
            <g id="编组-3" transform="translate(2173.000000, 1082.000000)">
                <path d="M22.6748466,33.6180451 C22.6748466,41.5609795 29.0963102,48 37.0175869,48 C44.9388636,48 51.3603272,41.5609795 51.3603272,33.6180451 C51.3603272,28.4798674 48.6266165,23.7319954 44.1889571,21.1629066 C39.7512978,18.5938177 34.283876,18.5938177 29.8462167,21.1629066 C25.4085573,23.7319954 22.6748466,28.4798674 22.6748466,33.6180451 L22.6748466,33.6180451 Z" id="路径" fill="#FF4C4D"></path>
                <path d="M5.60572597,48 L10.5096115,34.881203 L28.4785276,34.881203 L33.1484663,48 L38.7182004,48 L22.2789366,1.83157895 L21.6670757,0.0541353383 L17.9329243,0 L0,48 L5.60572597,48 Z M19.7055215,10.2406015 L26.597955,29.6210526 L12.4711656,29.6210526 L19.7055215,10.2406015 Z M63.7145194,23.7022556 C65.2441718,25.4345865 66,27.7804511 66,30.7398496 L66,47.3052632 L62.2658487,47.3052632 L62.2658487,42.9654135 C61.2400818,44.4 59.9083845,45.5639098 58.2887526,46.4571429 C56.3271984,47.4857143 54.203681,48 51.9182004,48 C49.3267894,48 47.2752556,47.3323308 45.7456033,46.006015 C44.1529652,44.643609 43.3521472,42.8300752 43.3521472,40.5654135 C43.3521472,37.2721805 44.6658487,34.8721805 47.2842536,33.3834586 C49.407771,32.1203008 52.2601227,31.4887218 55.8413088,31.4887218 L62.0139059,31.4345865 L62.0139059,30.5864662 C62.0139059,26.2646617 59.7734151,24.0992481 55.2924335,24.0992481 C53.204908,24.0992481 51.5762781,24.5323308 50.4155419,25.3984962 C49.1198364,26.3007519 48.3280164,27.6270677 48.0310838,29.3864662 L44.0989775,29.3864662 C44.4948875,26.4270677 45.7546012,24.2345865 47.8781186,22.8 C49.7316973,21.4736842 52.2871166,20.806015 55.5443763,20.806015 C59.206544,20.806015 61.9239264,21.7714286 63.7145194,23.7022556 L63.7145194,23.7022556 Z M62.0229039,34.5744361 L56.1022495,34.6285714 C50.3345603,34.6285714 47.4462168,36.5954887 47.4462168,40.5203008 C47.4462168,41.7834586 47.9141104,42.8120301 48.8408998,43.6150376 C49.803681,44.3819549 51.1083845,44.7609023 52.7730061,44.7609023 C55.3644172,44.7609023 57.5689162,43.9578947 59.395501,42.3609023 C61.1501022,40.7639098 62.0319018,38.9142857 62.0319018,36.8210526 L62.0319018,34.5744361 L62.0229039,34.5744361 Z" id="形状" fill="#FFFFFF"></path>
            </g>
        </g>
    </g>
</svg>