<?xml version="1.0" encoding="UTF-8"?>
<svg width="48px" height="48px" viewBox="0 0 48 48" version="1.1" xmlns="http://www.w3.org/2000/svg" xmlns:xlink="http://www.w3.org/1999/xlink">
    <title>形状</title>
    <g id="Nearhub-白板模块" stroke="none" stroke-width="1" fill="none" fill-rule="evenodd">
        <g id="白板-已登录-工具条2" transform="translate(-3692.000000, -1056.000000)" fill="#FFFFFF" fill-rule="nonzero">
            <g id="形状" transform="translate(3692.000000, 1056.000000)">
                <path d="M43.4285714,38.8571428 L35.4011429,38.8571428 C36.1786696,36.6546948 36.5744512,34.3356618 36.5714286,32 C36.5671569,25.3230953 33.3247546,19.0630028 27.8736658,15.207266 C22.4225771,11.3515293 15.4399979,10.3791515 9.14285716,12.5988572 L9.14285716,4.57142855 C9.14285716,2.04669828 11.1895554,0 13.7142857,0 L43.4285714,0 C45.9533017,0 48,2.04669828 48,4.57142855 L48,34.2857143 C48,36.8104446 45.9533017,38.8571428 43.4285714,38.8571428 Z" id="路径"></path>
                <path d="M0,32 C0,37.7162495 3.04958263,42.9982819 8,45.8564067 C12.9504172,48.7145315 19.0495828,48.7145315 24,45.8564067 C28.9504174,42.9982819 32,37.7162495 32,32 C32,23.163444 24.836556,16 16,16 C7.16344401,16 0,23.163444 0,32 L0,32 Z" id="路径"></path>
            </g>
        </g>
    </g>
</svg>