<?xml version="1.0" encoding="UTF-8"?>
<svg width="42px" height="42px" viewBox="0 0 42 42" version="1.1" xmlns="http://www.w3.org/2000/svg" xmlns:xlink="http://www.w3.org/1999/xlink">
    <title>拷贝备份 2</title>
    <g id="Nearhub-白板模块" stroke="none" stroke-width="1" fill="none" fill-rule="evenodd">
        <g id="白板-分页管理备份-5" transform="translate(-3367.000000, -381.000000)" fill="#000000" fill-rule="nonzero">
            <g id="复制" transform="translate(3367.000000, 381.000000)">
                <path d="M26.0483607,31.8727095 C21.8139612,31.8727095 17.5795137,31.8727095 13.3451143,31.8727095 C11.517908,31.8727095 10.0951897,30.4463182 10.0949497,28.6074034 C10.0940614,20.1617774 10.0940614,11.7161996 10.0949017,3.27057367 C10.0951418,1.42265039 11.5200207,0 13.3636485,0 C21.8179946,0 30.2723408,0 38.7266869,0 C40.5815024,0 41.9984108,1.42077168 41.9988429,3.28897583 C42.0003795,9.5231637 41.9994191,15.7573515 41.9994191,21.9915394 C41.9994191,24.1957033 42.0010517,26.3998673 41.9988429,28.6039831 C41.9972104,30.2223129 40.8993693,31.5444259 39.3145005,31.8347175 C39.1377051,31.8670899 38.9538993,31.8710401 38.7733586,31.8711364 C34.5317086,31.8730634 30.2900107,31.8727095 26.0483607,31.8727095 Z M26.0301626,29.2539978 C29.8513352,29.2539978 33.6725558,29.2550436 37.4937284,29.2513825 C37.7972384,29.2510934 38.102573,29.2316797 38.4037783,29.1945381 C38.9457845,29.1276738 39.2147709,28.8802081 39.2965424,28.3428845 C39.352049,27.9781653 39.3768734,27.6052567 39.3770654,27.2360092 C39.3814829,19.6995557 39.3809067,12.1631504 39.3784579,4.62669693 C39.3783619,4.32195338 39.3592995,4.0163909 39.3326505,3.71265896 C39.2752712,3.058708 39.0339901,2.78802291 38.3937429,2.68136748 C38.1235081,2.63632557 37.8457827,2.61869419 37.5714665,2.61854967 C29.8855707,2.61532204 22.1996749,2.6150812 14.5137791,2.61932044 C14.2110373,2.61951312 13.9054145,2.65106658 13.606274,2.69991416 C13.1179018,2.77968895 12.8701385,3.01910967 12.7988826,3.50893457 C12.7415513,3.90299122 12.7113971,4.304611 12.7111571,4.70285873 C12.7062114,12.1956673 12.7070277,19.6884277 12.7093325,27.1812363 C12.7094285,27.4860762 12.7267623,27.7916869 12.752403,28.0955151 C12.8154001,28.8417177 13.0773282,29.1191953 13.8080858,29.2067741 C14.073471,29.2385684 14.3426016,29.2516233 14.6100034,29.251816 C18.4167712,29.2547064 22.2234429,29.2539978 26.0301626,29.2539978 Z" id="形状"></path>
                <path d="M15.9416831,41.9993071 C11.7076198,41.9993071 7.4735564,41.9994517 3.23949301,41.999259 C1.43917577,41.9991626 0.00258083439,40.5716467 0.00200467233,38.7661158 C-0.000684224702,30.29939 -0.000636222928,21.832616 0.00195667056,13.3658902 C0.00248483084,11.5579507 1.4384556,10.1265069 3.23560374,10.1265069 C4.27236825,10.1265069 5.30913281,10.1265069 6.34589732,10.1265069 C7.11305121,10.1272072 7.67359167,10.6814396 7.6722472,11.4366988 C7.67095077,12.1784213 7.10839363,12.732172 6.35794938,12.7402651 C5.51041645,12.749418 4.66293156,12.7660859 3.81539863,12.7796708 C3.79369536,12.780008 3.77189603,12.7811641 3.75028875,12.7831874 C3.0254371,12.8508225 2.7313862,13.1434265 2.66056243,13.890737 C2.63112852,14.2014541 2.6159074,14.5147724 2.6158114,14.8268865 C2.61341061,22.3189243 2.61273835,29.8109621 2.61734793,37.3029999 C2.61758803,37.6866993 2.64668578,38.073241 2.69931149,38.4533274 C2.77479285,38.9982624 3.0515099,39.2557963 3.60119867,39.3220344 C3.88823914,39.3566227 4.17873682,39.3780116 4.46769798,39.3781079 C12.1238238,39.3810465 19.7799495,39.380902 27.4360753,39.3784933 C27.6961788,39.3783969 27.9576747,39.3612955 28.2161455,39.3313318 C28.907674,39.2511234 29.1984117,38.9663717 29.2361524,38.2627061 C29.2769662,37.5010881 29.2778305,36.7370614 29.2851769,35.97395 C29.2930516,35.1581853 29.8679008,34.556406 30.6321738,34.57924 C31.4113317,34.6025077 31.9515133,35.2644072 31.9215512,36.0836403 C31.8888522,36.9771083 31.9108916,37.8725033 31.9052257,38.7670793 C31.8965348,40.1502277 31.0430479,41.3789328 29.7508375,41.8181277 C29.4210626,41.9302268 29.0574364,41.9909249 28.7091273,41.9918884 C24.4533125,42.0033537 20.1974978,41.9993071 15.9416831,41.9993071 Z" id="路径"></path>
                <path d="M24.4226302,17.4510242 C24.3052307,17.4510242 24.2194739,17.4510242 24.1337651,17.4510242 C22.1543957,17.4510242 20.1750263,17.4524694 18.1956569,17.4502535 C17.4514067,17.4494345 16.803909,16.8857601 16.7143589,16.1704365 C16.6142453,15.3710026 17.0692462,14.6700346 17.8237719,14.4780163 C17.9689727,14.4410675 18.124545,14.4327817 18.2753637,14.432589 C20.2257314,14.4296986 22.176099,14.4306621 24.1264667,14.4306621 C24.2184656,14.4306621 24.3104645,14.4306621 24.4226303,14.4306621 C24.4226303,14.3133122 24.4226303,14.2270822 24.4226303,14.1409004 C24.4226303,12.1768797 24.4224382,10.2128591 24.4227263,8.24883845 C24.4228704,7.34597666 25.0645581,6.67844085 25.9313935,6.67844085 C26.7965963,6.67844085 27.4413571,7.34756637 27.4417893,8.24975375 C27.4427016,10.2137744 27.4420774,12.177795 27.4420774,14.1418157 C27.4420774,14.2280457 27.4420774,14.3142756 27.4420774,14.4307102 C27.5548673,14.4307102 27.6470103,14.4307102 27.7391532,14.4307102 C29.7185226,14.4307584 31.697892,14.4283497 33.6772614,14.4320591 C34.4184866,14.4334561 35.041352,14.975838 35.1474197,15.6954972 C35.258673,16.45066 34.8244151,17.1634303 34.1097428,17.377801 C33.9527781,17.4248662 33.7827049,17.4476521 33.6185377,17.4480375 C31.6536692,17.4527103 29.6888006,17.4510724 27.7239321,17.4510724 C27.6387034,17.4510724 27.5534268,17.4510724 27.4420774,17.4510724 C27.4420774,17.5568607 27.4420774,17.6415973 27.4420774,17.7263821 C27.4420774,19.7049511 27.4459667,21.68352 27.4398206,23.662089 C27.4378039,24.3105 27.1419285,24.8028781 26.5484009,25.064892 C25.9694223,25.3204989 25.4094101,25.2375929 24.9257915,24.8163184 C24.5856451,24.5200052 24.4226303,24.1312958 24.4226303,23.6767818 C24.4227264,21.6909387 24.4226783,19.7051438 24.4226783,17.7193007 C24.4226302,17.640104 24.4226302,17.5609555 24.4226302,17.4510242 Z" id="路径"></path>
            </g>
        </g>
    </g>
</svg>