<?xml version="1.0" encoding="UTF-8"?>
<svg width="48px" height="48px" viewBox="0 0 48 48" version="1.1" xmlns="http://www.w3.org/2000/svg" xmlns:xlink="http://www.w3.org/1999/xlink">
    <title>橡皮擦 (1)</title>
    <g id="Nearhub-白板模块" stroke="none" stroke-width="1" fill="none" fill-rule="evenodd">
        <g id="白板-已登录-工具条2" transform="translate(-3692.000000, -948.000000)" fill="#FFFFFF" fill-rule="nonzero">
            <g id="橡皮擦-(1)" transform="translate(3692.000000, 948.000000)">
                <path d="M48,17.084178 L31.0598235,0 L27.4277857,3.66003814 L25.8157689,2.03402119 L3.22553356,25.2202627 L4.83955041,26.8482797 L2.41952519,28.4742966 C-0.806508397,31.7283306 -0.806508397,36.6103814 2.41952519,39.8644153 L8.067584,45.5604746 C11.2936176,48.8145085 16.133668,48.8145085 19.3617017,45.5604746 L21.3777227,43.5264534 L22.9917395,45.1524704 L45.983979,21.9662288 L44.3699622,20.7462161 L48,17.086178 L48,17.084178 Z M31.0598235,2.84802965 L45.1759706,17.084178 L42.7559454,19.5242034 L28.6377983,4.88205084 L31.0578235,2.84802965 L31.0598235,2.84802965 Z M18.9556974,43.5264534 C17.6333561,44.8914251 15.8141013,45.6619454 13.9136449,45.6619454 C12.0131886,45.6619454 10.1939338,44.8914251 8.87159241,43.5264534 L4.43354618,39.0504068 C3.07879902,37.7054233 2.31688383,35.8753642 2.31688383,33.9663538 C2.31688383,32.0573435 3.07879902,30.2272844 4.43354618,28.8823009 L6.04756298,28.0682924 L20.1657101,42.3064407 L18.9556974,43.5264534 Z" id="形状"></path>
            </g>
        </g>
    </g>
</svg>