<?xml version="1.0" encoding="UTF-8"?>
<svg width="36px" height="36px" viewBox="0 0 36 36" version="1.1" xmlns="http://www.w3.org/2000/svg" xmlns:xlink="http://www.w3.org/1999/xlink">
    <title>83-小虚线</title>
    <g id="Nearhub-白板模块" stroke="none" stroke-width="1" fill="none" fill-rule="evenodd">
        <g id="白板-已登录模式" transform="translate(-1445.000000, -844.000000)" fill="#000000" fill-rule="nonzero">
            <g id="83-小虚线" transform="translate(1462.677670, 861.677670) rotate(-45.000000) translate(-1462.677670, -861.677670) translate(1438.677670, 860.677670)">
                <path d="M46.6415094,0 L43.9245283,0 C43.1742547,0 42.5660377,0.44771525 42.5660377,1 C42.5660377,1.55228475 43.1742547,2 43.9245283,2 L46.6415094,2 C47.3917831,2 48,1.55228475 48,1 C48,0.44771525 47.3917831,0 46.6415094,0 L46.6415094,0 Z M3.1698113,0 L1.35849057,0 C0.608216944,0 1.50822751e-15,0.44771525 1.50822751e-15,1 C1.50822751e-15,1.55228475 0.608216944,2 1.35849057,2 L3.1698113,2 C3.92008493,2 4.52830187,1.55228475 4.52830187,1 C4.52830187,0.44771525 3.92008493,0 3.1698113,0 L3.1698113,0 Z M17.6603774,0 L14.9433962,0 C14.1931226,0 13.5849057,0.44771525 13.5849057,1 C13.5849057,1.55228475 14.1931226,2 14.9433962,2 L17.6603774,2 C18.410651,2 19.0188679,1.55228475 19.0188679,1 C19.0188679,0.44771525 18.410651,0 17.6603774,0 L17.6603774,0 Z M10.4150943,0 L7.69811318,0 C6.94783955,0 6.33962261,0.44771525 6.33962261,1 C6.33962261,1.55228475 6.94783955,2 7.69811318,2 L10.4150943,2 C11.1653679,2 11.7735849,1.55228475 11.7735849,1 C11.7735849,0.44771525 11.1653679,0 10.4150943,0 L10.4150943,0 Z M24.9056604,0 L22.1886792,0 C21.4384056,0 20.8301887,0.44771525 20.8301887,1 C20.8301887,1.55228475 21.4384056,2 22.1886792,2 L24.9056604,2 C25.655934,2 26.2641509,1.55228475 26.2641509,1 C26.2641509,0.44771525 25.655934,0 24.9056604,0 L24.9056604,0 Z M39.3962264,0 L36.6792453,0 C35.9289717,0 35.3207547,0.44771525 35.3207547,1 C35.3207547,1.55228475 35.9289717,2 36.6792453,2 L39.3962264,2 C40.1465001,2 40.754717,1.55228475 40.754717,1 C40.754717,0.44771525 40.1465001,0 39.3962264,0 L39.3962264,0 Z M32.1509434,0 L29.4339622,0 C28.6836886,0 28.0754717,0.44771525 28.0754717,1 C28.0754717,1.55228475 28.6836886,2 29.4339622,2 L32.1509434,2 C32.901217,2 33.5094339,1.55228475 33.5094339,1 C33.5094339,0.44771525 32.901217,0 32.1509434,0 L32.1509434,0 Z" id="形状"></path>
            </g>
        </g>
    </g>
</svg>