<?xml version="1.0" standalone="no"?><!DOCTYPE svg PUBLIC "-//W3C//DTD SVG 1.1//EN" "http://www.w3.org/Graphics/SVG/1.1/DTD/svg11.dtd"><svg t="1657705058182" class="icon" viewBox="0 0 1024 1024" version="1.1" xmlns="http://www.w3.org/2000/svg" p-id="6767" width="32" height="32" xmlns:xlink="http://www.w3.org/1999/xlink"><defs><style type="text/css">@font-face { font-family: feedback-iconfont; src: url("//at.alicdn.com/t/font_1031158_u69w8yhxdu.woff2?t=1630033759944") format("woff2"), url("//at.alicdn.com/t/font_1031158_u69w8yhxdu.woff?t=1630033759944") format("woff"), url("//at.alicdn.com/t/font_1031158_u69w8yhxdu.ttf?t=1630033759944") format("truetype"); }
</style></defs><path d="M653.312 932.864H378.368c-9.728 0-18.432-4.096-24.576-11.776-0.512-0.512-46.592-56.32-104.96-116.736-23.552-24.064-49.152-43.52-71.68-60.928-34.816-26.624-65.024-49.664-75.776-81.408-5.12-12.288-7.68-24.576-7.68-37.376 0-52.224 41.984-94.72 94.72-95.744 28.16-3.072 60.416 7.168 90.624 21.504-40.448-92.16-91.136-218.624-89.088-263.68 1.536-42.496 29.696-78.336 72.192-94.208 38.4-13.824 77.312-7.168 99.84 16.896 1.024 1.536 2.56 2.56 3.072 4.096 13.824 21.504 27.648 43.52 40.96 66.56-1.536-57.344 0.512-113.152 11.264-136.704l1.536-3.072c8.704-14.848 21.504-27.136 35.84-35.84 24.064-13.824 51.2-17.92 77.824-10.752 26.112 7.168 48.128 24.064 61.44 47.104 0.512 0.512 0.512 1.024 1.024 2.048 7.68 16.384 12.288 44.544 14.848 77.312 6.656-12.8 13.824-23.04 20.992-29.696 1.024-1.024 2.048-2.048 3.072-2.56 13.312-9.728 28.16-15.872 44.544-17.92 26.624-4.096 53.248 2.56 75.264 18.944 22.016 15.872 35.84 39.936 39.936 66.56v1.536c2.048 20.48-5.12 51.2-15.872 84.992 8.704-5.632 17.408-9.728 25.6-12.288 15.872-6.144 33.28-8.192 50.688-5.12 24.576 4.608 45.568 18.432 59.904 38.912 13.824 20.48 19.456 44.544 14.848 69.12-4.608 31.232-29.184 66.56-60.416 110.592-23.04 32.768-49.152 69.632-63.488 102.912-27.136 76.288-48.128 148.48-65.024 220.16 0 0.512 0 1.024-0.512 1.536-10.24 38.4-46.08 65.024-86.016 65.024z m-260.096-63.488h260.096c11.264 0 21.504-7.68 25.088-18.432 17.408-74.24 39.424-148.992 67.584-227.328 0-0.512 0.512-1.536 1.024-2.048 16.896-39.424 45.056-79.36 70.144-115.2 20.992-30.208 47.104-67.584 49.152-82.944 0-0.512 0-1.024 0.512-2.048 1.536-7.68 0-15.36-4.608-22.016-4.096-6.144-10.752-10.752-18.432-11.776-5.632-1.024-11.264-0.512-15.872 1.536-1.024 0.512-2.048 1.024-3.072 1.024-29.696 9.216-85.504 72.704-115.2 114.688-9.728 13.824-28.16 17.408-42.496 9.216-14.336-8.704-19.968-26.624-12.288-41.472 38.4-78.848 78.336-180.224 76.288-208.384-1.536-9.728-6.656-17.92-14.848-23.552-8.192-6.144-17.92-8.192-27.648-7.168-5.12 0.512-9.728 2.56-14.336 5.12-16.384 18.432-46.592 108.032-65.536 183.296-4.096 15.872-19.456 26.112-35.84 24.064-16.384-2.56-28.16-16.896-27.136-33.792 5.632-95.232 4.608-213.504-7.168-240.64-5.12-8.192-12.8-13.824-21.504-16.384-9.728-2.56-19.968-1.024-28.672 4.096-5.12 3.072-9.216 7.168-12.8 12.288-9.216 25.088-5.632 149.504 3.584 251.904 1.536 15.36-8.704 29.696-23.552 33.792-14.848 4.096-30.72-3.072-37.376-17.408-31.744-67.072-66.56-130.56-104.448-188.928-4.608-3.072-15.872-4.096-29.696 0.512-7.168 2.56-29.696 12.8-30.72 36.864-1.536 34.304 63.488 195.584 126.976 331.264 6.144 13.312 2.56 29.696-9.216 38.4-11.776 9.216-28.16 9.216-39.936 0-38.4-30.208-105.984-70.656-137.216-66.56-1.536 0-2.56 0.512-4.096 0.512-17.92 0-32.256 14.336-32.256 31.744 0 4.608 1.024 8.704 3.072 13.312 0.512 1.024 1.024 2.048 1.024 3.072 4.608 13.824 28.672 32.256 54.272 51.712 24.064 18.432 51.712 39.424 78.336 67.072 45.056 47.616 81.92 90.112 98.816 110.592z" fill="#2c2c2c" p-id="6768"></path></svg>