<?xml version="1.0" encoding="UTF-8"?>
<svg width="48px" height="38px" viewBox="0 0 48 38" version="1.1" xmlns="http://www.w3.org/2000/svg" xmlns:xlink="http://www.w3.org/1999/xlink">
    <title>分页器</title>
    <g id="Nearhub-白板模块" stroke="none" stroke-width="1" fill="none" fill-rule="evenodd">
        <g id="白板-分页管理备份-4" transform="translate(-2908.000000, -1915.000000)" fill="#0A3EDB" fill-rule="nonzero">
            <g id="编组-9" transform="translate(2662.000000, 60.000000)">
                <g id="分页器" transform="translate(246.000000, 1855.000000)">
                    <path d="M42.6666667,0 C45.6121853,0 48,1.89035327 48,4.22222219 L48,33.7777778 C48,36.1096467 45.6121853,38 42.6666667,38 L5.33333329,38 C2.38781466,38 0,36.1096467 0,33.7777778 L0,4.22222219 C0,1.89035327 2.38781466,0 5.33333329,0 L42.6666667,0 L42.6666667,0 Z M22.6666666,2.11111109 L5.33333329,2.11111109 C3.98140041,2.11111109 2.84350943,2.91229276 2.68533329,3.97522219 L2.66666664,4.22222219 L2.66666664,33.7777778 C2.66666664,34.848058 3.67868559,35.7488884 5.02133329,35.8741111 L5.33333329,35.8888889 L22.6666666,35.8888889 L22.6666666,2.11111109 Z M42.6666667,2.11111109 L25.3333334,2.11111109 L25.3333334,35.8888889 L42.6666667,35.8888889 C44.0185996,35.8888889 45.1564906,35.0877072 45.3146667,34.0247778 L45.3333334,33.7777778 L45.3333334,4.22222219 C45.3333334,3.15194199 44.3213144,2.25111163 42.9786667,2.12588885 L42.6666667,2.11111109 Z M16.8053333,14.0937778 C17.2611367,14.4542028 17.3262326,15.0210799 16.96,15.4406666 L16.8053333,15.5884445 L12.552,18.9514445 L16.9333333,22.4221111 C17.388292,22.783073 17.4522607,23.3499071 17.0853333,23.769 L16.9333333,23.9146667 C16.4780596,24.275511 15.7620043,24.3270453 15.232,24.0371111 L15.0453334,23.9146667 L9.72266663,19.7008889 C9.26770797,19.339927 9.20373923,18.7730929 9.57066664,18.354 L9.72266663,18.2062222 L14.92,14.0937778 C15.4406665,13.681708 16.2846669,13.681708 16.8053333,14.0937778 L16.8053333,14.0937778 Z M31.2053334,14.0937778 C31.4554781,13.8952453 31.7951273,13.7836687 32.1493333,13.7836687 C32.5035394,13.7836687 32.8431886,13.8952453 33.0933333,14.0937778 L38.288,18.2083333 L38.4426667,18.354 C38.8088994,18.7735867 38.7438034,19.3404638 38.288,19.7008889 L32.9653334,23.9146667 L32.7786667,24.0371111 C32.2492096,24.3258564 31.5348777,24.2743655 31.08,23.9146667 L30.9253333,23.7668889 C30.5606024,23.3477354 30.6256436,22.7822226 31.08,22.4221111 L35.4586667,18.9514445 L31.2053334,15.5884445 L31.0533334,15.4406666 C30.686406,15.0215737 30.7503747,14.4547396 31.2053334,14.0937778 L31.2053334,14.0937778 Z" id="形状"></path>
                </g>
            </g>
        </g>
    </g>
</svg>