<?xml version="1.0" encoding="UTF-8"?>
<svg width="42px" height="42px" viewBox="0 0 42 42" version="1.1" xmlns="http://www.w3.org/2000/svg" xmlns:xlink="http://www.w3.org/1999/xlink">
    <title>垃圾桶备份 2</title>
    <g id="Nearhub-白板模块" stroke="none" stroke-width="1" fill="none" fill-rule="evenodd">
        <g id="白板-分页管理备份-5" transform="translate(-3489.000000, -381.000000)" fill="#D73232" fill-rule="nonzero">
            <g id="垃圾桶备份-2" transform="translate(3489.000000, 381.000000)">
                <path d="M0,7.89908257 L0,2.69724771 L9.01570681,2.69724771 L9.01570681,0 L32.9842932,0 L32.9842932,2.69724771 L42,2.69724771 L42,7.89908257 L0,7.89908257 Z M38.921466,15.7981651 C37.1623037,15.7981651 35.8429319,16.9541284 35.8429319,18.4954128 L35.8429319,29.4770642 C34.9633508,29.0917431 33.8638743,28.8990826 32.7643979,28.8990826 C27.7068063,28.8990826 23.7486911,32.3669725 23.7486911,36.7981651 C23.7486911,37.7614679 23.9685864,38.5321101 24.408377,39.4954128 L11.8743455,39.4954128 C8.57591623,39.4954128 5.93717277,37.1834862 5.93717277,34.293578 L5.93717277,18.4954128 C5.93717277,16.9541284 4.61780105,15.7981651 2.85863874,15.7981651 L2.85863874,10.5963303 L38.921466,10.5963303 L38.921466,15.7981651 L38.921466,15.7981651 Z M32.9842932,31.5963303 C36.2827225,31.5963303 38.921466,33.9082569 38.921466,36.7981651 C38.921466,39.6880734 36.2827225,42 32.9842932,42 C29.6858639,42 27.0471204,39.6880734 27.0471204,36.7981651 C26.8272251,33.9082569 29.4659686,31.5963303 32.9842932,31.5963303 Z" id="形状"></path>
            </g>
        </g>
    </g>
</svg>