<?xml version="1.0" encoding="UTF-8"?>
<svg width="48px" height="48px" viewBox="0 0 48 48" version="1.1" xmlns="http://www.w3.org/2000/svg" xmlns:xlink="http://www.w3.org/1999/xlink">
    <title>形状</title>
    <g id="Nearhub-白板模块" stroke="none" stroke-width="1" fill="none" fill-rule="evenodd">
        <g id="白板-已登录-工具条2" transform="translate(-3692.000000, -1380.000000)" fill="#FFFFFF" fill-rule="nonzero">
            <path d="M3693.75066,1428 C3692.75009,1427.87302 3692,1427.02075 3692,1426.01086 C3692,1425.00098 3692.75009,1424.14871 3693.75066,1424.02173 L3738.24934,1424.02173 C3739.24991,1424.14871 3740,1425.00098 3740,1426.01086 C3740,1427.02075 3739.24991,1427.87302 3738.24934,1428 L3693.75066,1428 Z M3718.00244,1386.62598 L3718.00244,1417.37006 C3717.87563,1418.37192 3717.02446,1419.123 3716.01589,1419.123 C3715.00732,1419.123 3714.15616,1418.37192 3714.02934,1417.37006 L3714.02934,1386.62598 L3698.86801,1401.80706 C3698.36836,1402.30736 3697.64011,1402.50275 3696.95758,1402.31962 C3696.27505,1402.1365 3695.74193,1401.60269 3695.55905,1400.91927 C3695.37617,1400.23585 3695.5713,1399.50665 3696.07095,1399.00636 L3714.37898,1380.64266 C3715.26567,1379.78578 3716.67076,1379.78578 3717.55745,1380.64266 L3735.86548,1398.97453 C3736.63787,1399.74792 3736.63787,1401.00184 3735.86548,1401.77523 C3735.0931,1402.54863 3733.84081,1402.54863 3733.06842,1401.77523 L3718.00244,1386.62598 Z" id="形状"></path>
        </g>
    </g>
</svg>