<?xml version="1.0" encoding="UTF-8"?>
<svg width="48px" height="48px" viewBox="0 0 48 48" version="1.1" xmlns="http://www.w3.org/2000/svg" xmlns:xlink="http://www.w3.org/1999/xlink">
    <title>导出</title>
    <g id="Nearhub-白板模块" stroke="none" stroke-width="1" fill="none" fill-rule="evenodd" opacity="0.779999971">
        <g id="白板-游客模式" transform="translate(-796.000000, -40.000000)" fill="#0E0E19" fill-rule="nonzero">
            <g id="导出" transform="translate(796.000000, 40.000000)">
                <path d="M40.4528406,8.3333587 C42.8679236,8.3333587 44.9811463,10.3333449 44.9811463,12.333331 L44.9811463,40.6666067 C44.9811463,42.6665929 43.169834,44.666579 40.4528406,44.666579 L7.54715941,44.666579 C5.13207642,44.666579 3.01885374,42.6665929 3.01885374,40.6666067 L3.01885374,12.333331 C3.01885374,10.3333449 4.83016598,8.3333587 7.54715941,8.3333587 L7.54715941,5.00004842 C3.32076417,5.00004842 0,8.3333587 0,12.3333864 L0,40.6666621 C0,44.6666344 3.32076417,48 7.54715941,48 L40.4528406,48 C44.6792358,48 48,44.6666897 48,40.6666621 L48,12.3333864 C48,8.33341404 44.6792358,5.00004842 40.4528406,5.00004842 L40.4528406,8.3333587 Z" id="路径"></path>
                <polygon id="路径" points="1.50945193 19.9999723 46.7924585 19.9999723 46.7924585 16.6666621 1.50945193 16.6666621"></polygon>
                <path d="M10.5660633,16.6666621 L37.4339869,16.6666621 L37.4339869,3.33336561 L10.5660633,3.33336561 L10.5660633,16.6666621 Z M7.54715941,0 L40.4528406,0 L40.4528406,19.9999723 L7.54715941,19.9999723 L7.54715941,0 Z" id="形状"></path>
            </g>
        </g>
    </g>
</svg>