<?xml version="1.0" encoding="UTF-8"?>
<svg width="48px" height="48px" viewBox="0 0 48 48" version="1.1" xmlns="http://www.w3.org/2000/svg" xmlns:xlink="http://www.w3.org/1999/xlink">
    <title>形状</title>
    <g id="Nearhub-白板模块" stroke="none" stroke-width="1" fill="none" fill-rule="evenodd">
        <g id="白板-橡皮擦功能" transform="translate(-3308.000000, -1120.000000)" fill="#5A5A5A" fill-rule="nonzero">
            <g id="垃圾桶" transform="translate(3308.000000, 1120.000000)">
                <path d="M0,9.02752294 L0,3.08256881 L10.3036649,3.08256881 L10.3036649,0 L37.6963351,0 L37.6963351,3.08256881 L48,3.08256881 L48,9.02752294 L0,9.02752294 Z M44.4816754,18.0550459 C42.4712042,18.0550459 40.9633508,19.3761468 40.9633508,21.1376147 L40.9633508,33.6880734 C39.9581152,33.2477064 38.7015707,33.0275229 37.4450262,33.0275229 C31.6649215,33.0275229 27.1413613,36.9908257 27.1413613,42.0550459 C27.1413613,43.1559633 27.3926702,44.0366972 27.895288,45.1376147 L13.5706806,45.1376147 C9.80104712,45.1376147 6.78534031,42.4954128 6.78534031,39.1926606 L6.78534031,21.1376147 C6.78534031,19.3761468 5.27748691,18.0550459 3.26701571,18.0550459 L3.26701571,12.1100917 L44.4816754,12.1100917 L44.4816754,18.0550459 L44.4816754,18.0550459 Z M37.6963351,36.1100917 C41.4659686,36.1100917 44.4816754,38.7522936 44.4816754,42.0550459 C44.4816754,45.3577982 41.4659686,48 37.6963351,48 C33.9267016,48 30.9109948,45.3577982 30.9109948,42.0550459 C30.6596859,38.7522936 33.6753927,36.1100917 37.6963351,36.1100917 Z" id="形状"></path>
            </g>
        </g>
    </g>
</svg>