<?xml version="1.0" encoding="UTF-8"?>
<svg width="48px" height="48px" viewBox="0 0 48 48" version="1.1" xmlns="http://www.w3.org/2000/svg" xmlns:xlink="http://www.w3.org/1999/xlink">
    <title>官方模版</title>
    <g id="Nearhub-白板模块" stroke="none" stroke-width="1" fill="none" fill-rule="evenodd">
        <g id="白板-已登录-工具条2" transform="translate(-3692.000000, -1272.000000)" fill="#FFFFFF" fill-rule="nonzero">
            <g id="官方模版" transform="translate(3692.000000, 1272.000000)">
                <path d="M0,4.0106668 C0,2.94688512 0.42217738,1.92659191 1.17438464,1.17438464 C1.92659191,0.42217738 2.94688512,0 4.0106668,0 L43.9893333,0 C45.0531149,0 46.0734081,0.422177401 46.8256154,1.17438466 C47.5778226,1.92659193 48,2.94688513 48,4.0106668 L48,43.9893332 C48,46.2043632 46.2043633,48 43.9893333,48 L4.0106668,48 C1.79563677,48 0,46.2043632 0,43.9893332 L0,4.0106668 Z M4.55998256,6.70933343 L4.55998256,26.1706667 C4.55998256,27.3589333 5.53066677,28.3201289 6.72640009,28.3201289 L17.5146667,28.3201289 C18.0885453,28.3262895 18.640965,28.1021215 19.0481839,27.6977095 C19.4554029,27.2932976 19.6833865,26.7424417 19.6810842,26.1685333 L19.6810842,6.71146679 C19.6793727,6.13879327 19.4501066,5.59027994 19.0437654,5.18673974 C18.6374242,4.78319955 18.0873382,4.55773293 17.5146667,4.55987123 L6.72640009,4.55987123 C6.15252144,4.55371064 5.60010178,4.77787863 5.19288284,5.18229055 C4.78566391,5.58670247 4.55768025,6.13755836 4.55998256,6.71146679 L4.55998256,6.70933343 Z M23.9999963,5.86666678 L23.9999963,8.53333344 C23.9999963,9.12213346 24.9653333,9.60000006 26.1557333,9.60000006 L41.2842666,9.60000006 C41.856,9.60000006 42.4042666,9.48800008 42.8095999,9.28853342 C43.2127999,9.08800008 43.4399999,8.81813341 43.4399999,8.53546675 L43.4399999,5.86666678 C43.4399999,5.58400011 43.2138666,5.31306677 42.8095999,5.11253343 C42.4042666,4.91306677 41.8570666,4.8000001 41.2842666,4.8000001 L26.1557333,4.8000001 C25.5839999,4.8000001 25.0357333,4.91200009 24.6304,5.11253343 C24.2261333,5.31200009 23.9989333,5.58293343 23.9999963,5.8656001 L23.9999963,5.86666678 Z M4.56000009,34.8 L4.56000009,41.2799999 C4.56000009,42.4810666 5.52106675,43.4399999 6.70400008,43.4399999 L41.2959999,43.4399999 C42.4841511,43.4347088 43.4435426,42.4681577 43.440032,41.2799999 L43.440032,34.8 C43.44312,34.2289527 43.2187493,33.6801618 42.8164558,33.274866 C42.4141622,32.8695703 41.8670546,32.6411256 41.2959999,32.6399999 L6.70293346,32.6399999 C5.51478222,32.6452911 4.55539073,33.6118422 4.55892369,34.8 L4.56000009,34.8 Z M23.9999962,14.5056 L23.9999962,17.1744001 C23.9999962,17.7610667 24.9536,18.2400001 26.1290667,18.2400001 L41.0709333,18.2400001 C41.6362666,18.2400001 42.1781332,18.1280001 42.5770666,17.9274667 C42.9759999,17.728 43.2010666,17.4570667 43.2000037,17.1744001 L43.2000037,14.5056 C43.2000037,13.9178667 42.2474666,13.4410667 41.0709333,13.44 L26.1290667,13.44 C25.5637334,13.44 25.0218667,13.552 24.6229333,13.7525334 C24.224,13.9520001 23.9989333,14.2229334 23.9999962,14.5056 L23.9999962,14.5056 Z" id="形状"></path>
            </g>
        </g>
    </g>
</svg>