<?xml version="1.0" standalone="no"?><!DOCTYPE svg PUBLIC "-//W3C//DTD SVG 1.1//EN" "http://www.w3.org/Graphics/SVG/1.1/DTD/svg11.dtd"><svg t="1660546501962" class="icon" viewBox="0 0 1024 1024" version="1.1" xmlns="http://www.w3.org/2000/svg" p-id="2667" width="48" height="48" xmlns:xlink="http://www.w3.org/1999/xlink"><defs><style type="text/css">@font-face { font-family: feedback-iconfont; src: url("//at.alicdn.com/t/font_1031158_u69w8yhxdu.woff2?t=1630033759944") format("woff2"), url("//at.alicdn.com/t/font_1031158_u69w8yhxdu.woff?t=1630033759944") format("woff"), url("//at.alicdn.com/t/font_1031158_u69w8yhxdu.ttf?t=1630033759944") format("truetype"); }
</style></defs><path d="M710.39682178 790.95627705c-128.17802812 0-175.14877237-141.31204805-216.94972061-265.90671035C451.65149844 400.4527669 418.21458857 313.2781956 352.13612188 313.2781956c-111.85511133 0-159.2256709 256.3517795-159.22567003 358.25963028-0.00427588 21.9823251-17.82275625 39.80080547-39.80508222 39.80080547-21.98553222 0-39.8040126-17.8184795-39.80828848-39.80080547 0-86.77796396 42.59416289-437.8730001 238.83904073-437.8730001 128.17802812 0 175.14877237 141.3109793 216.94544472 265.90670948s75.23678847 211.77137197 141.31525518 211.77137196 111.45850401-123.79823964 119.41738154-167.18561806c4.28892099-21.98553222 25.58600333-36.33396328 47.57153554-32.04611104 21.9823251 4.28785224 36.32968653 25.58493369 32.04183516 47.56725967-2.78587442 9.55492998-48.56145117 231.27783926-199.03075225 231.27783926z m-1e-8 0" fill="#000000" p-id="2668"></path></svg>