<?xml version="1.0" encoding="UTF-8"?>
<svg width="48px" height="48px" viewBox="0 0 48 48" version="1.1" xmlns="http://www.w3.org/2000/svg" xmlns:xlink="http://www.w3.org/1999/xlink">
    <title>关闭 (2)备份</title>
    <g id="Nearhub-白板模块" stroke="none" stroke-width="1" fill="none" fill-rule="evenodd">
        <g id="白板-用户管理界面-已登录模式-用户设置" transform="translate(-2710.000000, -382.000000)" fill="#FFFFFF" fill-rule="nonzero">
            <g id="关闭-(2)备份" transform="translate(2710.000000, 382.000000)">
                <path d="M29.0946329,24 L46.9403048,6.15432805 C48.3455214,4.7491115 48.3455214,2.46491175 46.9403048,1.05391241 C45.5350882,-0.351304138 43.2508885,-0.351304138 41.8398892,1.05391241 L24,18.9053671 L6.15432805,1.06547798 C4.7491115,-0.33973857 2.46491175,-0.33973857 1.05391241,1.06547798 C-0.351304138,2.47069454 -0.351304138,4.75489428 1.05391241,6.16589362 L18.8995844,24.0057828 L1.05391241,41.8456719 C-0.351304138,43.2508885 -0.351304138,45.5350882 1.05391241,46.9460876 C2.45912897,48.3513041 4.74332872,48.3513041 6.15432805,46.9460876 L24,29.1004156 L41.8456719,46.9460876 C43.2508885,48.3513041 45.5350882,48.3513041 46.9460876,46.9460876 C48.3513041,45.540871 48.3513041,43.2566713 46.9460876,41.8456719 L29.0946329,24 Z" id="路径"></path>
            </g>
        </g>
    </g>
</svg>