<?xml version="1.0" encoding="UTF-8"?>
<svg width="331px" height="81px" viewBox="0 0 331 81" version="1.1" xmlns="http://www.w3.org/2000/svg" xmlns:xlink="http://www.w3.org/1999/xlink">
    <title>编组 14</title>
    <g id="Nearhub-白板模块" stroke="none" stroke-width="1" fill="none" fill-rule="evenodd">
        <g id="白板-已登录-工具条" transform="translate(-3386.000000, -227.000000)">
            <g id="编组-14" transform="translate(3386.000000, 227.000000)">
                <rect id="矩形" stroke="#E6E6E6" stroke-width="0.5" fill="#F2EFE4" transform="translate(145.500000, 40.000000) scale(-1, 1) translate(-145.500000, -40.000000) " x="0.25" y="2.25" width="290.5" height="75.5" rx="5"></rect>
                <rect id="矩形" fill="#B7AEAE" transform="translate(164.000000, 40.500000) scale(-1, 1) translate(-164.000000, -40.500000) " x="37" y="0" width="254" height="81" rx="5"></rect>
                <path d="M290.75,67.25 L290.75,76 C290.75,77.3116763 290.218338,78.4991763 289.358757,79.3587572 C288.499176,80.2183381 287.311676,80.75 286,80.75 L286,80.75 L5,80.75 C3.68832372,80.75 2.50082372,80.2183381 1.64124279,79.3587572 C0.78166186,78.4991763 0.25,77.3116763 0.25,76 L0.25,76 L0.25,72 C0.25,70.6883237 0.78166186,69.5008237 1.64124279,68.6412428 C2.50082372,67.7816619 3.68832372,67.25 5,67.25 L5,67.25 L290.75,67.25 Z" id="矩形" stroke="#E6E6E6" stroke-width="0.5" fill="#D9D6C8" transform="translate(145.500000, 74.000000) scale(-1, 1) translate(-145.500000, -74.000000) "></path>
                <path d="M327.75,67.25 L327.75,76 C327.75,77.3116763 327.218338,78.4991763 326.358757,79.3587572 C325.499176,80.2183381 324.311676,80.75 323,80.75 L323,80.75 L42,80.75 C40.6883237,80.75 39.5008237,80.2183381 38.6412428,79.3587572 C37.7816619,78.4991763 37.25,77.3116763 37.25,76 L37.25,76 L37.25,72 C37.25,70.6883237 37.7816619,69.5008237 38.6412428,68.6412428 C39.5008237,67.7816619 40.6883237,67.25 42,67.25 L42,67.25 L327.75,67.25 Z" id="矩形" stroke="#E6E6E6" stroke-width="0.5" fill="#B7AEAE" transform="translate(182.500000, 74.000000) scale(-1, 1) translate(-182.500000, -74.000000) "></path>
                <path d="M330.5,0.5 L330.5,80.5 L45,80.5 C43.7573593,80.5 42.6323593,79.9963203 41.8180195,79.1819805 C41.0036797,78.3676407 40.5,77.2426407 40.5,76 L40.5,76 L40.5,5 C40.5,3.75735931 41.0036797,2.63235931 41.8180195,1.81801948 C42.6323593,1.00367966 43.7573593,0.5 45,0.5 L45,0.5 L330.5,0.5 Z" id="矩形" stroke="#FFFFFF" fill="#2A2D3D" transform="translate(185.500000, 40.500000) scale(-1, 1) translate(-185.500000, -40.500000) "></path>
                <path d="M42,67 L328,67 L328,81 L47,81 C44.2385763,81 42,78.7614237 42,76 L42,67 L42,67 Z" id="矩形" fill="#0F101C" transform="translate(185.000000, 74.000000) scale(-1, 1) translate(-185.000000, -74.000000) "></path>
            </g>
        </g>
    </g>
</svg>