<?xml version="1.0" encoding="UTF-8"?>
<svg width="61px" height="34px" viewBox="0 0 61 34" version="1.1" xmlns="http://www.w3.org/2000/svg" xmlns:xlink="http://www.w3.org/1999/xlink">
    <title>左箭头,指向左箭头</title>
    <g id="Nearhub-白板模块" stroke="none" stroke-width="1" fill="none" fill-rule="evenodd">
        <g id="白板-离线模式" transform="translate(-60.000000, -60.000000)" fill="#000000" fill-rule="nonzero">
            <g id="左箭头,指向左箭头" transform="translate(60.000000, 60.000000)">
                <path d="M7.10327174,13.8369151 L57.8296042,13.8369151 C59.5796627,13.8369151 61,15.2539771 61,17 C61,18.7460229 59.5796627,20.1630849 57.8296042,20.1630849 L7.10327174,20.1630849 C5.35321327,20.1630849 3.93287596,18.7460229 3.93287596,17 C3.93287596,15.2539771 5.35321327,13.8369151 7.10327174,13.8369151 Z" id="路径"></path>
                <path d="M5.41662119,15.1843892 L18.8654401,28.6021956 C20.1018944,29.8357987 20.1018944,31.8411945 18.8654401,33.0747977 C17.6289857,34.3084008 15.6189548,34.3084008 14.3825005,33.0747977 L0.927340766,19.6569913 C-0.309113589,18.4233882 -0.309113589,16.4179924 0.927340766,15.1843892 C2.17013591,13.9444599 4.17382604,13.9444599 5.41662119,15.1843892 Z" id="路径"></path>
                <path d="M18.8654401,5.39780445 L5.41662119,18.8156108 C4.18016684,20.0492139 2.17013591,20.0492139 0.933681557,18.8156108 C-0.302772797,17.5820076 -0.302772797,15.5766118 0.933681557,14.3430087 L14.3825005,0.925202344 C15.6189548,-0.308400781 17.6289857,-0.308400781 18.8654401,0.925202344 C20.1018944,2.15880547 20.1018944,4.16420132 18.8654401,5.39780445 L18.8654401,5.39780445 Z" id="路径"></path>
            </g>
        </g>
    </g>
</svg>