<?xml version="1.0" encoding="UTF-8"?>
<svg width="181px" height="202px" viewBox="0 0 181 202" version="1.1" xmlns="http://www.w3.org/2000/svg" xmlns:xlink="http://www.w3.org/1999/xlink">
    <title>椭圆形备份</title>
    <defs>
        <linearGradient x1="50%" y1="0%" x2="50%" y2="100%" id="linearGradient-1">
            <stop stop-color="#FF8A33" offset="0%"></stop>
            <stop stop-color="#FE4EB5" offset="50.0249689%"></stop>
            <stop stop-color="#FE2DEA" offset="100%"></stop>
        </linearGradient>
        <path d="M18.5245909,0.0876385297 C22.5640777,-0.271006386 26.2174275,0.49389832 29.8351515,1.96500081 C32.27077,2.95541478 34.7822232,4.32553442 37.4747885,6.09894318 L37.9130249,6.39006175 C38.5728107,6.83205333 39.2436491,7.29798185 39.9270552,7.78818673 L40.3845379,8.11859021 C40.5376638,8.22992602 40.691427,8.34246438 40.845844,8.45620903 L41.3110735,8.80106554 L41.7803261,9.15318209 C42.1730739,9.44964378 42.5701163,9.75369128 42.9717132,10.0653828 L43.4558321,10.4430855 C43.5368885,10.5066487 43.6181313,10.5705186 43.6995624,10.6346957 L44.1904268,11.0234476 C44.2726199,11.0888552 44.3550056,11.1545708 44.4375859,11.220595 C45.8275675,12.331906 47.2919263,13.5483124 48.8318179,14.8710291 L49.4963993,15.44442 C49.8310056,15.7343735 50.1690878,16.0292164 50.5106573,16.328961 L51.1984495,16.9349889 C52.1217143,17.7517494 53.0698315,18.603422 54.0430168,19.4902332 L54.7776095,20.1619337 L55.5216229,20.8468325 C55.6464113,20.9620833 55.7715931,21.0778849 55.8971686,21.1942378 L56.655351,21.8989739 L57.4230047,22.6169613 L58.2001499,23.3482214 C58.4607825,23.5941893 58.7230003,23.8423728 58.9868068,24.0927755 L59.7829956,24.8506447 C59.9164892,24.978067 60.0503808,25.106045 60.1846708,25.2345792 L60.9951954,26.012461 C61.1310808,26.1432214 61.2673655,26.2745388 61.4040499,26.4064137 L62.2289558,27.204356 L63.0634745,28.0156986 L63.9076261,28.8404625 C64.049122,28.9790428 64.19102,29.1181833 64.3333207,29.2578842 L65.1919598,30.1028203 L66.0602824,30.9612309 C66.2058109,31.1054234 66.3517438,31.2501782 66.4980814,31.3954958 L67.3809672,32.2741582 C67.5289254,32.4217287 67.6772893,32.5698628 67.8260591,32.718561 L68.7235537,33.6175229 L69.6308126,34.5300445 L70.5478561,35.456147 L71.4747045,36.3958516 C71.6299974,36.5536037 71.7856997,36.7119235 71.9418118,36.8708114 L72.8834054,37.830959 L73.8348543,38.804762 C73.9942515,38.9682016 74.1540602,39.132211 74.3142808,39.2967908 L75.2805506,40.2911165 L76.2567264,41.2991506 L77.2428282,42.3209144 L78.2388764,43.3564291 C78.4057144,43.530162 78.5729677,43.7044687 78.7406367,43.8793497 L79.7516423,44.9355307 L80.7726448,46.0055157 C80.9436461,46.1849981 81.1150647,46.3650565 81.2869012,46.5456914 L82.3229369,47.6364224 L83.3690199,48.7410106 L84.4251707,49.8594773 C84.6020359,50.0470461 84.7793214,50.2351941 84.9570277,50.4239216 L86.0283177,51.5632458 C89.6100034,55.3776686 93.0763578,59.003339 96.425889,62.4395314 L97.6032232,63.6444364 C113.431684,79.8044097 126.603988,91.6608369 136.958736,99.1352339 L137.207998,99.3146965 L137.702074,99.6676484 C137.865773,99.7839721 138.028477,99.8989692 138.190177,100.01264 L138.67226,100.349677 L139.148274,100.678765 C139.227101,100.732951 139.305673,100.786805 139.383989,100.840329 L139.850807,101.157501 C140.005384,101.261902 140.158929,101.364981 140.311434,101.466737 L140.76582,101.768041 C140.841029,101.817597 140.915975,101.866824 140.990658,101.91572 L141.435593,102.205136 C141.656474,102.347863 141.87497,102.487621 142.091052,102.624413 L142.519991,102.894041 L142.942446,103.155763 L143.358368,103.409584 C143.427141,103.451229 143.49564,103.492546 143.563864,103.533533 L143.969896,103.775513 L144.369273,104.009604 L144.761947,104.235812 C144.826832,104.272857 144.891435,104.309573 144.955756,104.345962 L145.149581,104.454921 L145.146062,104.28814 C145.140842,104.064941 145.134196,103.837834 145.126102,103.606846 L145.107976,103.139705 C145.09794,102.903557 145.086441,102.663547 145.073455,102.419704 L145.045496,101.926917 L145.013533,101.423959 C145.00787,101.339288 145.002038,101.254195 144.996037,101.168682 L144.957993,100.650563 C144.951311,100.563371 144.944459,100.475761 144.937434,100.387733 L144.893218,99.8545667 C144.877787,99.6751802 144.861662,99.4941322 144.844837,99.3114312 L144.792251,98.7583773 C144.774017,98.5723786 144.755075,98.3847352 144.735419,98.1954555 L144.674301,97.6227163 C144.663756,97.5264444 144.65303,97.4297656 144.642123,97.3326809 L144.582959,96.8172656 C142.838111,81.9304214 137.245695,60.0711492 127.7838,31.6196823 C124.661094,22.2298535 129.743128,12.0869477 139.134841,8.96486807 C148.526553,5.84278843 158.671494,10.923803 161.7942,20.3136317 C171.960613,50.883555 178.09668,74.867815 180.180491,92.6466448 L180.259672,93.3363022 C180.285414,93.5653343 180.310503,93.7935138 180.334936,94.0208445 L180.406266,94.7002936 L180.473643,95.3746714 C180.539039,96.0465207 180.598481,96.7107957 180.651891,97.3675949 L180.703286,98.0219057 L180.750643,98.6712544 L180.793943,99.3156628 C180.80082,99.4226538 180.807528,99.5294398 180.814066,99.6360213 L180.851248,100.27306 L180.88433,100.905214 C180.889501,101.010167 180.894501,101.114917 180.899328,101.219465 L180.926227,101.844331 L180.948982,102.464367 C181.141967,108.228884 180.791198,113.365013 179.83279,117.952713 C178.919865,122.322694 177.438154,126.291167 175.242498,129.822053 C172.608369,134.058059 169.032984,137.493373 164.632509,139.812881 C160.343549,142.073609 155.622594,143.094408 150.731223,143.0087 C146.705134,142.938154 142.641542,142.126738 138.47921,140.688121 C134.558127,139.332887 130.462946,137.387948 126.134849,134.859498 L125.59262,134.540403 C125.502045,134.486714 125.411367,134.432772 125.320587,134.378577 L124.774671,134.05037 C124.592285,133.939955 124.409484,133.828529 124.226264,133.716091 L123.675342,133.375743 C123.399248,133.204053 123.122201,133.030087 122.844186,132.853849 L122.286864,132.498341 C121.91445,132.259316 121.540299,132.016251 121.164378,131.76915 L120.599164,131.395472 L120.031269,131.015742 C119.746646,130.824365 119.461009,130.63072 119.174342,130.434808 L118.599631,130.039962 C118.311585,129.841028 118.0225,129.639828 117.732362,129.436365 L117.150676,129.026419 C117.053493,128.957592 116.956192,128.888513 116.858772,128.819183 L116.272824,128.400185 L115.978775,128.188424 C114.980641,127.467938 113.966515,126.718626 112.936307,125.940443 L112.247118,125.417377 C112.131856,125.329487 112.016395,125.241239 111.900735,125.152636 L111.204388,124.616733 C111.087931,124.526703 110.971276,124.436316 110.854422,124.345572 L110.150903,123.796826 C107.444905,121.676886 104.633358,119.368146 101.714765,116.869878 L100.950964,116.213856 C100.823259,116.103802 100.695351,115.99339 100.56724,115.88262 L99.7961431,115.213694 C99.6672211,115.10149 99.5380961,114.988927 99.4087681,114.876005 L98.6303617,114.19417 L97.8470752,113.503725 C97.5851657,113.272141 97.3224418,113.039122 97.0589026,112.804666 L96.265838,112.096992 L95.4678756,111.3807 L94.6650093,110.655785 L93.8572334,109.922246 C93.7221946,109.799271 93.586951,109.675936 93.4515024,109.552242 L92.6363508,108.805761 L91.8162747,108.050648 L90.9912683,107.286901 L90.1613256,106.514516 C89.8838546,106.255615 89.60556,105.995273 89.3264407,105.733491 L88.4866077,104.943823 L87.6418207,104.145509 C87.5006097,104.011736 87.359192,103.877603 87.2175675,103.743109 L86.3653384,102.93182 L85.5081406,102.111879 C85.3648599,101.9745 85.2213719,101.836761 85.0776765,101.698662 L84.2130144,100.865735 L83.3433687,100.024148 L82.4687336,99.173897 L81.5891032,98.3149802 C81.2950598,98.02723 81.0001829,97.7380349 80.7044714,97.4473945 L79.8148325,96.5711369 C79.6661418,96.4243711 79.5172422,96.2772439 79.3681336,96.1297552 L78.4709728,95.2404843 L77.5687902,94.3425344 L76.6615797,93.4359026 L76.1633761,92.9363627 L76.4252484,93.3350721 L77.3227578,94.697436 L78.2232544,96.0593556 C78.3735731,96.2862858 78.5240065,96.513183 78.6745498,96.7400397 L79.5790879,98.1006383 L80.4860274,99.4599196 L81.3951339,100.817534 L82.306173,102.173134 L83.2189104,103.526368 L84.1331116,104.876888 L85.0485423,106.224345 L85.9649682,107.568389 L86.8821548,108.908671 L87.7998678,110.244843 C87.9528508,110.467176 88.105846,110.689324 88.2588485,110.911278 L89.1769116,112.240628 L90.0949153,113.564994 C90.2478979,113.785287 90.4008683,114.005358 90.5538215,114.225199 L91.4712964,115.541435 L92.3881258,116.851813 L93.3040753,118.155985 L94.2189107,119.453602 L95.1323975,120.744314 C95.2845199,120.958838 95.4365763,121.173059 95.5885619,121.386971 L96.4995864,122.666672 L97.4086764,123.938594 L98.3155975,125.202389 L99.2201154,126.457709 C99.3706551,126.666203 99.5210848,126.874329 99.6713999,127.082081 L100.571873,128.324031 L101.469358,129.556632 C101.917314,130.170537 102.364061,130.780805 102.809467,131.38724 L103.698453,132.59494 C103.846306,132.795352 103.994001,132.995323 104.141532,133.194847 L105.024716,134.386559 C105.171573,134.584263 105.318257,134.781504 105.464762,134.978276 L106.411886,136.247129 L106.918068,136.922568 L107.672455,137.925644 L108.42086,138.916477 L108.91641,139.57015 L109.654556,140.540215 L110.62888,141.813887 L111.35205,142.754119 L112.068583,143.681295 L112.778348,144.595251 L113.481212,145.495826 L114.177046,146.382856 L114.636965,146.966604 L115.320789,147.830699 L115.997232,148.680816 L116.444028,149.239715 L117.107878,150.066174 L117.763997,150.878221 L118.197049,151.411499 L118.626569,151.938251 L119.052516,152.45843 L119.684654,153.226267 L120.101501,153.7298 L120.514639,154.226591 L121.127309,154.95903 L121.531007,155.438754 L122.129333,156.145366 L122.718878,156.836267 L123.106965,157.288057 L123.491052,157.732744 L123.8711,158.170279 L124.433514,158.813066 L124.803295,159.232511 L125.1689,159.644634 L125.530292,160.049389 L125.887431,160.446727 L126.240279,160.8366 L126.588796,161.21896 L126.932943,161.593758 L127.272682,161.960946 L127.607974,162.320477 L127.919994,162.652391 L128.208239,162.956584 L128.49123,163.252875 L128.905586,163.682331 L129.174887,163.958536 L129.568119,164.357504 L129.948109,164.737837 L130.314433,165.099277 L130.550845,165.329615 L130.780869,165.551364 L131.113649,165.867721 L131.327148,166.06767 L131.533817,166.258764 L131.757294,166.462199 L131.976344,166.517525 C136.593407,167.71805 140.718228,170.746798 143.182703,175.242223 L143.323034,175.503199 C147.938771,184.256471 144.583212,195.093445 135.828184,199.708256 C130.204051,202.67276 124.592367,202.500191 119.488311,200.67364 C116.855331,199.731395 114.514354,198.388947 112.157147,196.675894 C110.853999,195.728857 109.513558,194.638401 108.120462,193.399878 L107.739209,193.058424 C107.547919,192.885858 107.355623,192.710531 107.162283,192.532431 L106.7742,192.172531 C106.709284,192.11193 106.644249,192.05102 106.579093,191.989801 L106.186704,191.618769 L105.791357,191.24029 C105.592933,191.049186 105.393374,190.855281 105.192641,190.658564 L104.789598,190.261376 C104.654721,190.127728 104.519311,189.992826 104.383355,189.856668 L103.973844,189.444419 C103.905316,189.375081 103.836648,189.305428 103.767841,189.23546 L103.353296,188.81186 L102.935309,188.380666 L102.51381,187.941858 L102.088731,187.495414 L101.660002,187.041313 L101.262889,186.617346 L100.862011,186.186138 L100.457396,185.747727 L100.049069,185.302151 L99.6370579,184.849448 L99.2213889,184.389655 L98.8020885,183.922812 L98.3791834,183.448954 L97.9527001,182.968121 L97.5226653,182.480349 L97.0891056,181.985678 L96.6520475,181.484144 L96.2115177,180.975785 L95.7675427,180.46064 L95.3201493,179.938746 L94.8693638,179.410141 L94.415213,178.874863 L93.727735,178.059516 L93.0328346,177.229367 L92.5654884,176.667774 L91.8584168,175.813239 L91.3830396,175.235507 L90.9044966,174.651386 L90.1808042,173.763306 L89.4501383,172.861063 L88.7125887,171.944784 L88.2171089,171.326197 L87.4682857,170.386809 L86.9653734,169.752933 L86.2055261,168.79079 L85.439184,167.815165 L84.9247254,167.15732 L84.1477582,166.159507 C84.0610794,166.047907 83.9742847,165.936063 83.8873747,165.823976 L83.1020869,164.808669 L82.5751474,164.124583 L82.0455076,163.434769 L81.2460429,162.389393 L80.4406519,161.331343 L79.6294245,160.260746 L78.8124504,159.177731 L78.2646527,158.448884 L77.7143674,157.714613 C74.1771509,152.987994 70.5402799,147.997994 66.8648767,142.835656 L65.761161,141.281876 L64.6555,139.718301 C64.2866629,139.195538 63.9175627,138.671234 63.5482605,138.145479 L62.4398094,136.563955 C61.885342,135.771109 61.3305577,134.975204 60.7756629,134.176548 L59.6657869,132.57566 C58.9258527,131.506078 58.1859665,130.431969 57.4466171,129.354061 L56.3380569,127.734443 C54.1219861,124.489873 51.9129477,121.214398 49.724144,117.927681 L48.6314895,116.283478 C46.8134127,113.54188 45.010916,110.794753 43.2316394,108.053475 L42.1669211,106.409502 C40.22027,103.397172 38.3035644,100.394674 36.4269734,97.4171568 L35.4074178,95.7956246 C31.8533251,90.1295698 28.4521743,84.5645944 25.2747222,79.2060901 L24.3431777,77.6301613 L23.8681153,76.822592 L23.1632401,75.6193297 L22.4676956,74.4258819 L22.0092211,73.6357607 L21.3293991,72.4589319 L20.8814777,71.6799991 L20.4378176,70.9056026 L19.7803673,69.7525898 L19.3474604,68.9896868 L18.9188948,68.2314423 L18.2842363,67.1028862 L17.8666239,66.3564403 L17.2485024,65.2457456 L16.6404061,64.1459247 L16.2406161,63.4188099 L15.8453389,62.696615 L15.4545974,61.979375 L14.8770393,60.9128815 L14.3098151,59.8577325 L13.9374447,59.1606605 L13.3876148,58.1246806 L13.0269121,57.4404969 L12.494691,56.4240129 L11.9731381,55.4193835 L11.631401,54.7562745 L11.2944624,54.0985213 L10.9623453,53.4461589 L10.4732597,52.4777991 L10.1532961,51.839066 L9.83823396,51.2058457 L9.52809611,50.578173 L9.22290542,49.9560829 L8.92268476,49.3396101 L8.62745698,48.7287896 L8.33724496,48.1236562 C8.28929554,48.0232765 8.24155606,47.9231352 8.194027,47.8232331 L7.91138147,47.2266957 L7.63380885,46.6359327 L7.361332,46.0509788 C7.31634511,45.9539726 7.2715715,45.8572098 7.22701164,45.7606913 L6.96222132,45.1845165 C6.91851837,45.0889778 6.87503013,44.9936848 6.83175708,44.8986381 L6.57470472,44.331321 L6.3228396,43.7699526 L6.05323415,43.162669 C6.00877957,43.061972 5.96456496,42.9615327 5.92059054,42.8613502 L5.65962783,42.2633274 L5.40443952,41.6714161 L5.15503566,41.0855663 L4.91142631,40.5057281 L4.67362151,39.9318515 C4.59532179,39.7415474 4.51799117,39.5522285 4.44163132,39.3638866 L4.2154658,38.8017835 L3.99513499,38.2454922 C3.92266496,38.0610249 3.85116905,37.8775178 3.78064895,37.6949628 L3.57201774,37.1501453 C3.50345092,36.969486 3.43586158,36.7897702 3.3692514,36.6109899 L3.17235999,36.0774465 C2.71980861,34.8390204 2.31531793,33.6460185 1.95946266,32.4955857 L1.80993262,32.005141 C1.56568426,31.1920492 1.34629178,30.4004684 1.15196461,29.629358 C0.468819952,26.9185691 0.0631276596,24.3610172 0.00702613297,21.8054424 C-0.0853963466,17.5953508 0.722101155,13.5169137 3.13508184,9.57537686 C6.53239218,4.02596493 12.2306286,0.646446518 18.5245909,0.0876385297 Z M122.458615,166.652497 C121.467725,166.936345 120.454066,167.330154 119.422968,167.850076 L119.388782,167.867401 L119.640857,167.742507 C120.524364,167.312802 121.42705,166.962279 122.340609,166.688368 L122.607058,166.610654 L122.458615,166.652497 Z" id="path-2"></path>
    </defs>
    <g id="Nearhub-底边栏、批注、设置模块" stroke="none" stroke-width="1" fill="none" fill-rule="evenodd">
        <g id="开机logo备份-4" transform="translate(-713.000000, -505.000000)">
            <g id="椭圆形" transform="translate(713.000000, 505.000000)">
                <mask id="mask-3" fill="white">
                    <use xlink:href="#path-2"></use>
                </mask>
                <use id="蒙版" fill="url(#linearGradient-1)" fill-rule="nonzero" xlink:href="#path-2"></use>
                <ellipse fill="#FFFFFF" mask="url(#mask-3)" cx="139.012815" cy="179.174027" rx="14.3364449" ry="14.3335695"></ellipse>
                <ellipse id="椭圆形备份-2" fill="#FFFFFF" mask="url(#mask-3)" cx="145.157005" cy="26.8798518" rx="14.3364449" ry="14.3335695"></ellipse>
            </g>
        </g>
    </g>
</svg>