<?xml version="1.0" encoding="UTF-8"?>
<svg width="24px" height="24px" viewBox="0 0 24 24" version="1.1" xmlns="http://www.w3.org/2000/svg" xmlns:xlink="http://www.w3.org/1999/xlink">
    <title>叉号</title>
    <g id="Nearhub-白板模块" stroke="none" stroke-width="1" fill="none" fill-rule="evenodd">
        <g id="白板-用户管理界面-游客模式" transform="translate(-481.000000, -1546.000000)" fill="#7389CD" fill-rule="nonzero">
            <g id="叉号" transform="translate(481.000000, 1546.000000)">
                <path d="M14.4623384,12 L23.4897128,2.97262569 C24.1700957,2.2922427 24.1700957,1.19067023 23.4897128,0.510287241 C22.8093298,-0.170095747 21.7077573,-0.170095747 21.0273743,0.510287241 L12,9.53766155 L2.97262569,0.510287241 C2.2922427,-0.170095747 1.19067023,-0.170095747 0.510287241,0.510287241 C-0.170095747,1.19067023 -0.170095747,2.2922427 0.510287241,2.97262569 L9.53766155,12 L0.510287241,21.0273743 C-0.170095747,21.7077573 -0.170095747,22.8093298 0.510287241,23.4897128 C1.19067023,24.1700957 2.2922427,24.1700957 2.97262569,23.4897128 L12,14.4623384 L21.0273743,23.4897128 C21.7077573,24.1700957 22.8093298,24.1700957 23.4897128,23.4897128 C24.1700957,22.8093298 24.1700957,21.7077573 23.4897128,21.0273743 L14.4623384,12 Z" id="路径"></path>
            </g>
        </g>
    </g>
</svg>