<?xml version="1.0" encoding="UTF-8"?>
<svg width="48px" height="10px" viewBox="0 0 48 10" version="1.1" xmlns="http://www.w3.org/2000/svg" xmlns:xlink="http://www.w3.org/1999/xlink">
    <title>更多备份</title>
    <g id="Nearhub-白板模块" stroke="none" stroke-width="1" fill="none" fill-rule="evenodd">
        <g id="白板-游客模式" transform="translate(-3732.000000, -59.000000)" fill="#000000" fill-rule="nonzero">
            <g id="更多备份" transform="translate(3732.000000, 59.000000)">
                <path d="M0,5 C0,7.76142375 2.33590565,10 5.2173913,10 C8.09887696,10 10.4347826,7.76142375 10.4347826,5 C10.4347826,2.23857625 8.09887696,0 5.2173913,0 C2.33590565,0 0,2.23857625 0,5 Z M18.7826087,5 C18.7826087,7.76142375 21.1185143,10 24,10 C26.8814857,10 29.2173913,7.76142375 29.2173913,5 C29.2173913,2.23857625 26.8814857,0 24,0 C21.1185143,0 18.7826087,2.23857625 18.7826087,5 Z M37.5652174,5 C37.5652174,7.76142375 39.901123,10 42.7826087,10 C45.6640943,10 48,7.76142375 48,5 C48,2.23857625 45.6640943,0 42.7826087,0 C39.901123,0 37.5652174,2.23857625 37.5652174,5 Z" id="形状"></path>
            </g>
        </g>
    </g>
</svg>