<?xml version="1.0" encoding="UTF-8"?>
<svg width="69px" height="59px" viewBox="0 0 69 59" version="1.1" xmlns="http://www.w3.org/2000/svg" xmlns:xlink="http://www.w3.org/1999/xlink">
    <title>无网络</title>
    <g id="Nearhub-白板模块" stroke="none" stroke-width="1" fill="none" fill-rule="evenodd">
        <g id="白板-离线模式" transform="translate(-1885.000000, -60.000000)" fill="#000000" fill-rule="nonzero">
            <g id="无网络" transform="translate(1885.000000, 60.000000)">
                <path d="M34.7459653,50.4522588 C32.3880637,50.4522588 30.5351256,52.2509286 30.5351256,54.5397727 C30.5351256,56.7467848 32.3880637,58.5454545 34.7459653,58.5454545 C37.103867,58.5454545 38.956805,56.7467848 38.956805,54.5397727 C38.956805,52.2501103 37.0195659,50.4522588 34.7459653,50.4522588 Z M8.63791617,11.0476428 C5.94281019,12.6008162 3.33200522,14.399486 0.889802471,16.4428338 C-0.205268787,17.3421687 -0.289569863,18.9771742 0.636899178,20.0401734 C1.56336822,21.1031725 3.24770408,21.1850046 4.34277534,20.2856697 C6.86927917,18.1596715 9.56438515,16.36182 12.4280934,14.8078283 L8.63791617,11.0476428 Z M68.0963216,16.4428338 C58.7481731,8.59513445 46.8735209,4.26212422 34.4930621,4.26212422 C29.1871511,4.26212422 23.8812402,5.07962702 18.9125336,6.63280047 L23.1233733,10.8021465 C26.8292495,9.90281156 30.7028848,9.41263725 34.5773631,9.41263725 C45.6941486,9.41263725 56.3902715,13.2546548 64.7276498,20.2856697 C65.2334564,20.6940119 65.8227211,20.9395083 66.4119857,20.9395083 C67.1698525,20.9395083 67.8434183,20.6121799 68.4335259,20.0401734 C69.2756939,18.9771742 69.1913928,17.3421687 68.0963216,16.4428338 L68.0963216,16.4428338 Z M19.9233038,22.1661716 C16.4703309,23.637513 13.1859602,25.5998469 10.322252,28.1341874 C9.22802384,29.0335223 9.14372269,30.6685278 10.1536498,31.731527 C11.1644199,32.7937077 12.7644547,32.8763582 13.859526,31.8951912 C16.8075353,29.3608508 20.2605081,27.3985167 23.8812402,26.0908396 L19.9233038,22.1661716 L19.9233038,22.1661716 Z M34.0723996,19.3863348 C33.3145328,19.3863348 32.5566659,19.3863348 31.7987991,19.4681669 L37.0204089,24.61868 C43.421391,25.1915047 49.4851688,27.8076773 54.3695742,31.976205 C54.8745378,32.3853655 55.4646455,32.6300436 56.1382112,32.6300436 C56.8960781,32.6300436 57.5696438,32.3027151 58.0754504,31.8125408 C59.0862205,30.75036 58.9176184,29.1153544 57.9068482,28.2152012 C51.3372639,22.4926817 42.8312834,19.3863348 34.0723996,19.3863348 L34.0723996,19.3863348 Z M38.3675404,40.4785612 L32.640967,34.8378739 C28.177224,35.1652023 23.8820831,36.88204 20.5134114,39.9065547 C19.4183402,40.8877217 19.3348821,42.4408952 20.3448093,43.5038943 C21.3555794,44.5660751 22.9556142,44.6479073 24.0506854,43.6675586 C26.8292494,41.2150502 30.3673664,39.9073731 34.0723996,39.9073731 C35.5881333,39.9057364 37.0195659,40.0694007 38.3675404,40.4785612 Z M7.54368791,0.501120452 C6.87012216,-0.152718105 5.85935204,-0.152718105 5.26924438,0.419288297 C4.67997971,0.992113066 4.59567863,1.97246175 5.26924438,2.54528652 L51.0843606,47.8360863 C51.421565,48.1634147 51.8422274,48.3270789 52.1785888,48.3270789 C52.6000942,48.3270789 52.9364556,48.1634147 53.27366,47.9179183 C53.8629247,47.3459119 53.9472258,46.3647449 53.27366,45.7927385 L7.54368791,0.501120452 Z" id="形状"></path>
            </g>
        </g>
    </g>
</svg>