<?xml version="1.0" encoding="UTF-8"?>
<svg width="16px" height="16px" viewBox="0 0 16 16" version="1.1" xmlns="http://www.w3.org/2000/svg" xmlns:xlink="http://www.w3.org/1999/xlink">
    <title>扫一扫，猫客</title>
    <g id="Nearhub-白板模块" stroke="none" stroke-width="1" fill="none" fill-rule="evenodd">
        <g id="首页" transform="translate(-311.000000, -34.000000)" fill="#000000" fill-rule="nonzero">
            <g id="扫一扫，猫客" transform="translate(311.000000, 34.000000)">
                <path d="M15.0587818,1.41343105 L15.0587818,5.17789313 L15.9999627,5.17789313 L15.9999627,0.942821943 C15.9999627,-0.0865514518 15.0587818,0.00190245282 15.0587818,0.00190245282 L10.8235426,0.00190245282 L10.8235426,0.942821943 L14.5881914,0.942821943 C14.5881914,0.942821961 15.0587818,0.957551821 15.0587818,1.41343105 Z" id="路径"></path>
                <path d="M0.94118087,1.41344973 C0.94118087,0.957570503 1.41175263,0.942840624 1.41175263,0.942840624 L5.17643875,0.942840624 L5.17643875,0.00192113452 L0.94118087,0.00192113452 C0.94118087,0.00192113452 5.18521205e-16,-0.0865140884 5.18521205e-16,0.942840624 L5.18521205e-16,5.17791181 L0.94118087,5.17791181 L0.94118087,1.41344973 Z" id="路径"></path>
                <path d="M15.0587631,14.5899258 L15.0587631,14.5899258 C15.0587818,15.0460477 14.5881914,15.0607403 14.5881914,15.0607403 L10.8235239,15.0607403 L10.8235239,16.0016598 L15.0587631,16.0016598 C15.0587631,16.0016598 15.999944,16.0894229 15.999944,15.0607403 L15.999944,10.8252023 L15.0587631,10.8252023 L15.0587631,14.5899258 Z" id="路径"></path>
                <path d="M0.94118087,14.5899258 L0.94118087,10.8252023 L1.86634514e-05,10.8252023 L1.86634514e-05,15.0607403 C1.86634514e-05,16.0894789 0.941199533,16.0016224 0.941199533,16.0016224 L5.17647607,16.0016224 L5.17647607,15.0607403 L1.41175263,15.0607403 C1.41175263,15.0607403 0.94118087,15.0459917 0.94118087,14.5899258 Z" id="路径"></path>
                <polygon id="路径" points="1.86634514e-05 7.53105067 16 7.53105067 16 8.47221285 1.86634514e-05 8.47221285 1.86634514e-05 7.53105067"></polygon>
            </g>
        </g>
    </g>
</svg>