<?xml version="1.0" encoding="UTF-8"?>
<svg width="27px" height="38px" viewBox="0 0 27 38" version="1.1" xmlns="http://www.w3.org/2000/svg" xmlns:xlink="http://www.w3.org/1999/xlink">
    <title>字体斜体</title>
    <g id="Nearhub-白板模块" stroke="none" stroke-width="1" fill="none" fill-rule="evenodd">
        <g id="白板-已登录模式备份-2" transform="translate(-2834.000000, -942.000000)" fill="#FFFFFF" fill-rule="nonzero">
            <g id="字体斜体" transform="translate(2834.000000, 942.000000)">
                <path d="M25.5,-1.29810692e-15 L12,-1.29810692e-15 C11.1715729,-1.29810692e-15 10.5,0.654353058 10.5,1.46153846 C10.5,2.26872387 11.1715729,2.92307692 12,2.92307692 L16.515,2.92307692 L5.718,35.0769231 L1.5,35.0769231 C0.671572875,35.0769231 0,35.7312761 0,36.5384615 C0,37.3456469 0.671572875,38 1.5,38 L15,38 C15.8284271,38 16.5,37.3456469 16.5,36.5384615 C16.5,35.7312761 15.8284271,35.0769231 15,35.0769231 L10.6065,35.0769231 L21.4125,2.92307692 L25.5,2.92307692 C26.3284271,2.92307692 27,2.26872387 27,1.46153846 C27,0.654353058 26.3284271,-1.29810692e-15 25.5,-1.29810692e-15 Z" id="路径"></path>
            </g>
        </g>
    </g>
</svg>