<?xml version="1.0" encoding="UTF-8"?>
<svg width="31px" height="38px" viewBox="0 0 31 38" version="1.1" xmlns="http://www.w3.org/2000/svg" xmlns:xlink="http://www.w3.org/1999/xlink">
    <title>字体下划线</title>
    <g id="Nearhub-白板模块" stroke="none" stroke-width="1" fill="none" fill-rule="evenodd">
        <g id="白板-已登录模式备份-2" transform="translate(-2921.000000, -942.000000)" fill="#FFFFFF" fill-rule="nonzero">
            <g id="字体下划线" transform="translate(2921.000000, 942.000000)">
                <path d="M26.9231771,0 L26.9231771,21.846692 C26.9087669,24.8772768 25.972793,27.356183 24.1152552,29.2834107 C22.2721276,31.210596 19.7666172,32.2918996 16.598724,32.527279 L15.4971745,32.5714286 C12.0556901,32.5714286 9.31259375,31.6225312 7.26784505,29.7247366 C5.22309635,27.826942 4.18633203,25.2156295 4.15755208,21.8908415 L4.15755208,0 L8.26141927,0 L8.26141927,21.7584353 C8.26141927,24.0828393 8.88779687,25.8923772 10.1405521,27.1870067 C11.3933073,28.4669196 13.1788346,29.1068549 15.4971745,29.1068549 C17.8442943,29.1068549 19.6370065,28.4669196 20.8753919,27.1870067 C22.1281471,25.9070937 22.7545247,24.1049353 22.7545247,21.7804888 L22.7545247,0 L26.9231771,0 Z M0,35.625 C0,35.4376177 0.144574716,35.2857143 0.322916667,35.2857143 L30.6770833,35.2857143 C30.8554253,35.2857143 31,35.4376177 31,35.625 L31,37.6607143 C31,37.8480966 30.8554253,38 30.6770833,38 L0.322916667,38 C0.144574716,38 0,37.8480966 0,37.6607143 L0,35.625 Z" id="形状"></path>
            </g>
        </g>
    </g>
</svg>