<?xml version="1.0" encoding="UTF-8"?>
<svg width="27px" height="38px" viewBox="0 0 27 38" version="1.1" xmlns="http://www.w3.org/2000/svg" xmlns:xlink="http://www.w3.org/1999/xlink">
    <title>字体加粗</title>
    <g id="Nearhub-白板模块" stroke="none" stroke-width="1" fill="none" fill-rule="evenodd">
        <g id="白板-已登录模式备份-2" transform="translate(-2747.000000, -942.000000)" fill="#FFFFFF" fill-rule="nonzero">
            <g id="字体加粗" transform="translate(2747.000000, 942.000000)">
                <path d="M25.5668162,21.7101274 C24.54438,20.0770037 23.0358433,18.9908079 21.0426836,18.4530721 L21.0426836,18.3488953 C22.0991026,17.8280116 22.9870855,17.2458474 23.7066324,16.6024028 C24.4276568,15.9941945 24.9802452,15.3507499 25.365875,14.673601 C26.1194046,13.2488308 26.4799168,11.7551201 26.4459341,10.1909369 C26.4459341,7.13304306 25.5328335,4.67416546 23.7066324,2.81430414 C21.8966838,0.972826963 19.1898873,0.0352362522 15.5877203,0 L1.74972218e-15,0 L1.74972218e-15,38 L16.8199628,38 C19.7025829,38 22.1064901,37.0011289 24.0346394,35.0018545 C25.9790413,33.0899049 26.9674948,30.4931463 27,27.2100468 C27,25.2291566 26.5227646,23.3953395 25.5668162,21.7101274 Z M5.96027142,5.13376875 L14.9597789,5.13376875 C16.9869213,5.169005 18.4792054,5.68069666 19.4336763,6.67190776 C20.4058772,7.73205935 20.8919777,9.02660861 20.8919777,10.5555556 C20.8919777,12.0845025 20.4058772,13.3530076 19.4336763,14.3610708 C18.4792054,15.4549266 16.9869213,16.0033866 14.9597789,16.0033866 L5.96027142,16.0033866 L5.96027142,5.13376875 Z M20.0128598,30.8072085 C19.058389,31.9363006 17.5498522,32.5184648 15.4887272,32.553701 L5.96027142,32.553701 L5.96027142,21.1386873 L15.4872496,21.1386873 C17.5483747,21.1723915 19.0569115,21.7377036 20.0113823,22.8330914 C20.9658531,23.9453314 21.4445661,25.282777 21.4445661,26.8469602 C21.4445661,28.3743751 20.9673306,29.6949686 20.0128598,30.8072085 L20.0128598,30.8072085 Z" id="形状"></path>
            </g>
        </g>
    </g>
</svg>