<?xml version="1.0" encoding="UTF-8"?>
<svg width="50px" height="38px" viewBox="0 0 50 38" version="1.1" xmlns="http://www.w3.org/2000/svg" xmlns:xlink="http://www.w3.org/1999/xlink">
    <title>右对齐</title>
    <g id="Nearhub-白板模块" stroke="none" stroke-width="1" fill="none" fill-rule="evenodd">
        <g id="白板-已登录模式备份-2" transform="translate(-2517.000000, -939.000000)" fill="#FFFFFF" fill-rule="nonzero">
            <g id="右对齐" transform="translate(2517.000000, 939.000000)">
                <path d="M47.4754558,5.11527675 L2.52454418,5.11527675 C1.12903226,5.11527675 0,3.97144403 0,2.55763838 C0,1.14383272 1.12903226,0 2.52454418,0 L47.4754558,0 C48.8709677,0 50,1.14383272 50,2.55763838 C50,3.97144403 48.8709677,5.11527675 47.4754558,5.11527675 Z M47.4319776,16.0768512 L15.5245442,16.0768512 C14.1290323,16.0768512 13,14.9330185 13,13.5192128 C13,12.1054071 14.1290323,10.9615744 15.5245442,10.9615744 L47.4319776,10.9615744 C48.8274895,10.9615744 49.9565217,12.1054071 49.9565217,13.5192128 C49.9565217,14.9330185 48.8274895,16.0768512 47.4319776,16.0768512 Z M47.4754558,27.0384256 L2.52454418,27.0384256 C1.12903226,27.0384256 0,25.8945929 0,24.4807872 C0,23.0669815 1.12903226,21.9231488 2.52454418,21.9231488 L47.4754558,21.9231488 C48.8709677,21.9231488 50,23.0669815 50,24.4807872 C50,25.8945929 48.8709677,27.0384256 47.4754558,27.0384256 Z M47.4319776,38 L15.5245442,38 C14.1290323,38 13,36.8561673 13,35.4423616 C13,34.028556 14.1290323,32.8847232 15.5245442,32.8847232 L47.4319776,32.8847232 C48.8274895,32.8847232 49.9565217,34.028556 49.9565217,35.4423616 C49.9565217,36.8561673 48.8274895,38 47.4319776,38 Z" id="形状"></path>
            </g>
        </g>
    </g>
</svg>