<?xml version="1.0" encoding="UTF-8"?>
<svg width="50px" height="38px" viewBox="0 0 50 38" version="1.1" xmlns="http://www.w3.org/2000/svg" xmlns:xlink="http://www.w3.org/1999/xlink">
    <title>middle-align</title>
    <g id="Nearhub-白板模块" stroke="none" stroke-width="1" fill="none" fill-rule="evenodd">
        <g id="白板-已登录模式备份" transform="translate(-2407.000000, -1087.000000)" fill="#FFFFFF" fill-rule="nonzero">
            <g id="middle-align" transform="translate(2407.000000, 1087.000000)">
                <path d="M47.4754558,5.13320826 L2.52454418,5.13320826 C1.12903226,5.13320826 0,3.98536585 0,2.56660413 C0,1.1478424 1.12903226,0 2.52454418,0 L47.4754558,0 C48.8709677,0 50,1.1478424 50,2.56660413 C50,3.98536585 48.8709677,5.13320826 47.4754558,5.13320826 Z M40.9537167,16.1125704 L9.04628331,16.1125704 C7.65077139,16.1125704 6.52173913,14.964728 6.52173913,13.5459662 C6.52173913,12.1272045 7.65077139,10.9793621 9.04628331,10.9793621 L40.9537167,10.9793621 C42.3492286,10.9793621 43.4782609,12.1272045 43.4782609,13.5459662 C43.4782609,14.964728 42.3492286,16.1125704 40.9537167,16.1125704 Z M47.4754558,27.0206379 L2.52454418,27.0206379 C1.12903226,27.0206379 0,25.8727955 0,24.4540338 C0,23.035272 1.12903226,21.8874296 2.52454418,21.8874296 L47.4754558,21.8874296 C48.8709677,21.8874296 50,23.035272 50,24.4540338 C50,25.8727955 48.8709677,27.0206379 47.4754558,27.0206379 Z M40.9537167,38 L9.04628331,38 C7.65077139,38 6.52173913,36.8521576 6.52173913,35.4333959 C6.52173913,34.0146341 7.65077139,32.8667917 9.04628331,32.8667917 L40.9537167,32.8667917 C42.3492286,32.8667917 43.4782609,34.0146341 43.4782609,35.4333959 C43.4782609,36.8521576 42.3492286,38 40.9537167,38 Z" id="形状"></path>
            </g>
        </g>
    </g>
</svg>