<?xml version="1.0" encoding="UTF-8"?>
<svg width="96px" height="99px" viewBox="0 0 96 99" version="1.1" xmlns="http://www.w3.org/2000/svg" xmlns:xlink="http://www.w3.org/1999/xlink">
    <title>便签,贴纸备份 6</title>
    <defs>
        <path d="M86,2.6875 L86,53.75 L59.125,53.75 C56.1603516,53.75 53.75,56.1519531 53.75,59.125 L53.75,86 L2.6875,86 C1.20097656,86 0,84.7990234 0,83.3125 L0,2.6875 C0,1.20097656 1.20097656,0 2.6875,0 L83.3125,0 C84.7990234,0 86,1.20097656 86,2.6875 Z" id="path-1"></path>
        <filter x="-13.4%" y="-7.6%" width="126.7%" height="130.2%" filterUnits="objectBoundingBox" id="filter-2">
            <feOffset dx="0" dy="8" in="SourceAlpha" result="shadowOffsetOuter1"></feOffset>
            <feGaussianBlur stdDeviation="2.5" in="shadowOffsetOuter1" result="shadowBlurOuter1"></feGaussianBlur>
            <feColorMatrix values="0 0 0 0 0.623529412   0 0 0 0 0.596078431   0 0 0 0 0.596078431  0 0 0 0.5 0" type="matrix" in="shadowBlurOuter1"></feColorMatrix>
        </filter>
    </defs>
    <g id="Nearhub-白板模块" stroke="none" stroke-width="1" fill="none" fill-rule="evenodd">
        <g id="白板-已登录-工具条2备份-3" transform="translate(-3340.000000, -1280.000000)" fill-rule="nonzero">
            <g id="便签,贴纸备份-6" transform="translate(3345.000000, 1280.000000)">
                <g id="路径">
                    <use fill="black" fill-opacity="1" filter="url(#filter-2)" xlink:href="#path-1"></use>
                    <use fill="#A7CCF5" xlink:href="#path-1"></use>
                </g>
                <path d="M85.4625,59.125 C85.2027283,59.7032016 84.83402,60.2395045 84.3731347,60.7003898 L60.7003898,84.3731347 C60.2395045,84.83402 59.7115813,85.1943486 59.125,85.4625 L59.125,59.125 L85.4625,59.125 Z" id="路径" fill="#A7CCF5"></path>
            </g>
        </g>
    </g>
</svg>