<?xml version="1.0" encoding="UTF-8"?>
<svg width="32px" height="32px" viewBox="0 0 32 32" version="1.1" xmlns="http://www.w3.org/2000/svg" xmlns:xlink="http://www.w3.org/1999/xlink">
    <title>添加用户</title>
    <g id="Nearhub-白板模块" stroke="none" stroke-width="1" fill="none" fill-rule="evenodd">
        <g id="白板-用户管理界面-已登录模式-限制团队备份" transform="translate(-2312.000000, -1087.000000)" fill="#0A3EDB" fill-rule="nonzero">
            <g id="编组-15" transform="translate(1190.000000, 382.000000)">
                <g id="编组-13" transform="translate(1080.000000, 681.000000)">
                    <g id="添加用户" transform="translate(42.000000, 24.000000)">
                        <path d="M24.7298895,30.7951274 C23.7320312,30.7951274 22.7876296,30.6061277 21.8966847,30.2281285 C21.0057397,29.8501292 20.2276478,29.3303802 19.562409,28.6688815 C18.8971701,28.0073828 18.3744824,27.2336656 17.9943459,26.3477298 C17.6142094,25.461794 17.4241412,24.5227021 17.4241412,23.530454 C17.4241412,22.538206 17.6142094,21.5991141 17.9943459,20.7131783 C18.3744824,19.8272425 18.8971701,19.0594315 19.562409,18.4097453 C20.2276478,17.7600591 21.0057397,17.2462163 21.8966847,16.8682171 C22.7876296,16.4902178 23.7320312,16.3012182 24.7298895,16.3012182 C25.7277478,16.3012182 26.6721494,16.4902178 27.5630943,16.8682171 C28.4540392,17.2462163 29.2261915,17.7600591 29.8795511,18.4097453 C30.5329107,19.0594315 31.0496588,19.8272425 31.4297953,20.7131783 C31.8099318,21.5991141 32,22.538206 32,23.530454 C32,24.5227021 31.8099318,25.461794 31.4297953,26.3477298 C31.0496588,27.2336656 30.5329107,28.0073828 29.8795511,28.6688815 C29.2261915,29.3303802 28.4540392,29.8501292 27.5630943,30.2281285 C26.6721494,30.6061277 25.7277478,30.7951274 24.7298895,30.7951274 Z M28.3293069,22.3610188 L25.69211,22.3610188 L25.69211,19.9158361 C25.69211,19.5850867 25.5851966,19.3015873 25.3713698,19.0653378 C25.157543,18.8290882 24.8843199,18.7109635 24.5517005,18.7109635 C24.2190811,18.7109635 23.9577372,18.8290882 23.767669,19.0653378 C23.5776007,19.3015873 23.4825666,19.5850867 23.4825666,19.9158361 L23.4825666,22.3610188 L21.1661098,22.3610188 C20.8334904,22.3610188 20.548388,22.4791436 20.3108027,22.7153931 C20.0732174,22.9516427 19.9544247,23.2351421 19.9544247,23.5658915 C19.9544247,23.8966408 20.0732174,24.1447028 20.3108027,24.3100775 C20.548388,24.4754522 20.8334904,24.5581395 21.1661098,24.5581395 L23.4825666,24.5581395 L23.4825666,27.0741971 C23.4825666,27.4049465 23.5776007,27.6884459 23.767669,27.9246955 C23.9577372,28.160945 24.2190811,28.2790698 24.5517005,28.2790698 C24.8843199,28.2790698 25.157543,28.160945 25.3713698,27.9246955 C25.5851966,27.6884459 25.69211,27.4049465 25.69211,27.0741971 L25.69211,24.5581395 L28.3293069,24.5581395 L28.3293069,24.6290144 C28.6619264,24.6290144 28.9470288,24.5345146 29.1846141,24.345515 C29.4221994,24.1565153 29.540992,23.8966408 29.540992,23.5658915 C29.540992,23.2351421 29.4221994,22.9516427 29.1846141,22.7153931 C28.9470288,22.4791436 28.6619264,22.3610188 28.3293069,22.3610188 L28.3293069,22.3610188 Z M19.5267712,13.5370986 C19.4317371,13.9150978 19.3367029,14.2576597 19.2416688,14.5647841 C19.1466347,14.8246585 19.027842,15.0904393 18.8852908,15.3621262 C18.7427397,15.6338132 18.5883092,15.8405316 18.4219995,15.9822813 C18.2081727,16.147656 18.0596819,16.3248431 17.976527,16.5138427 C17.8933722,16.7028424 17.8220966,16.8977482 17.7627002,17.0985604 C17.7033039,17.2993725 17.637968,17.5060908 17.5666924,17.7187154 C17.4954168,17.93134 17.3766241,18.1439646 17.2103144,18.3565891 C16.6638682,19.0653378 16.2540335,19.7504614 15.9808104,20.4119601 C15.7075873,21.0734588 15.5175191,21.7113326 15.4106057,22.3255814 C15.3036923,22.9398302 15.2739941,23.5481728 15.3215112,24.1506091 C15.3690282,24.7530454 15.4640624,25.337763 15.6066136,25.9047619 C15.7016477,26.3300111 15.8441989,26.772979 16.0342671,27.2336656 C16.2243354,27.6943522 16.5034981,28.1668512 16.8717553,28.6511628 C17.2400126,29.1354743 17.7092436,29.6079734 18.2794483,30.06866 C18.849653,30.5293466 19.562409,30.9723145 20.4177161,31.3975637 C19.8475114,31.5156884 19.1822725,31.6220007 18.4219995,31.7165006 C17.7805191,31.7873754 16.990548,31.852344 16.052086,31.9114064 C15.113624,31.9704688 14.0385505,32 12.8268654,32 C12.2091436,32 11.490448,31.976375 10.6707787,31.9291251 C9.8511094,31.8818752 9.00768154,31.8228128 8.14049516,31.751938 C7.27330878,31.6810631 6.41800166,31.5983758 5.5745738,31.503876 C4.73114595,31.4093762 3.95899369,31.3089701 3.25811702,31.2026578 C2.55724036,31.0963455 1.96327708,30.984127 1.47622719,30.8660022 C0.989177304,30.7478774 0.686256032,30.6415652 0.567463377,30.5470653 C0.353636597,30.3580657 0.18732688,29.8324105 0.0685342243,28.9700997 C-0.0502584311,28.1077889 -0.0146206345,26.9796973 0.175447614,25.585825 C0.29424027,24.8062016 0.609040806,24.2096715 1.11984922,23.7962348 C1.63065764,23.3827981 2.23056055,23.057955 2.91955795,22.8217054 C3.60855536,22.5854559 4.32725092,22.3669251 5.07564465,22.166113 C5.82403838,21.9653008 6.48333762,21.6877076 7.05354236,21.3333333 C7.50495445,21.0498339 7.84945315,20.7840532 8.08703846,20.5359911 C8.32462378,20.2879291 8.49093349,20.0339609 8.58596762,19.7740864 C8.68100174,19.5142119 8.7285188,19.2425249 8.7285188,18.9590255 C8.7285188,18.675526 8.71663954,18.3684016 8.69288101,18.0376523 C8.64536395,17.5415282 8.47311459,17.1517165 8.17613296,16.8682171 C7.87915132,16.5847176 7.56435078,16.3012182 7.23173135,16.0177187 C7.0416631,15.875969 6.87535338,15.6633444 6.73280219,15.379845 C6.59025101,15.0963455 6.47145835,14.8246585 6.37642423,14.5647841 C6.25763157,14.2576597 6.16259745,13.9150978 6.09132185,13.5370986 C5.92501214,13.4898487 5.77058168,13.4189738 5.6280305,13.324474 C5.50923784,13.2299742 5.37856592,13.0882244 5.23601473,12.8992248 C5.09346355,12.7102252 4.96279163,12.4267257 4.84399897,12.0487265 C4.72520632,11.6943522 4.68362889,11.3636028 4.71926668,11.0564784 C4.75490448,10.749354 4.82024044,10.4894795 4.91527457,10.2768549 C5.01030869,10.0169804 5.14098061,9.79254337 5.30729033,9.60354374 C5.30729033,8.80029531 5.35480739,7.99704688 5.44984151,7.19379845 C5.54487564,6.50867479 5.69336646,5.77630122 5.89531397,4.99667774 C6.09726149,4.21705426 6.42394129,3.52011812 6.87535338,2.90586932 C7.30300694,2.31524548 7.76035866,1.83093392 8.24740855,1.45293466 C8.73445844,1.0749354 9.23932722,0.779623477 9.76201491,0.566998893 C10.2847026,0.354374308 10.8073903,0.206718346 11.330078,0.124031008 C11.8527656,0.0413436693 12.3516948,0 12.8268654,0 C13.4445872,0 14.0385505,0.0708748616 14.6087552,0.212624585 C15.17896,0.354374308 15.7075873,0.543373939 16.1946372,0.779623477 C16.6816871,1.01587302 17.1152803,1.28165375 17.4954168,1.57696567 C17.8755533,1.87227759 18.1844142,2.17349575 18.4219995,2.48062016 C18.9684457,3.16574382 19.3664011,3.92174234 19.6158657,4.74861573 C19.8653302,5.57548911 20.0494589,6.35511259 20.1682515,7.08748616 C20.2870442,7.9379845 20.3345612,8.78848283 20.3108027,9.63898117 C20.4533539,9.75710594 20.5721465,9.89885567 20.6671807,10.0642303 C20.7622148,10.2059801 20.8334904,10.3949797 20.8810075,10.6312292 C20.9285245,10.8674788 20.9285245,11.1627907 20.8810075,11.517165 C20.8334904,11.9660391 20.7384563,12.3204134 20.5959051,12.5802879 C20.4533539,12.8401624 20.2989234,13.0409745 20.1326137,13.1827243 C19.9425455,13.3480989 19.740598,13.4662237 19.5267712,13.5370986 L19.5267712,13.5370986 Z" id="形状"></path>
                    </g>
                </g>
            </g>
        </g>
    </g>
</svg>