<svg xmlns="http://www.w3.org/2000/svg" width="352" height="216" viewBox="0 0 352 216"><g transform="translate(-704 -278)"><g transform="translate(704 278)" fill="none" stroke="#c6c9cf" stroke-width="1"><rect width="352" height="216" rx="6" stroke="none"/><rect x="0.5" y="0.5" width="351" height="215" rx="5.5" fill="none"/></g><line x2="350.844" transform="translate(704.289 301.997)" fill="none" stroke="#c6c9cf" stroke-width="1"/><ellipse cx="4.048" cy="4.048" rx="4.048" ry="4.048" transform="translate(714.986 286.095)" fill="#c6c9cf"/><ellipse cx="4.048" cy="4.048" rx="4.048" ry="4.048" transform="translate(726.551 286.095)" fill="#c6c9cf"/><ellipse cx="4.048" cy="4.048" rx="4.048" ry="4.048" transform="translate(738.119 286.095)" fill="#c6c9cf"/><g transform="translate(754.5 338)" fill="none" stroke="#c6c9cf" stroke-width="1"><rect width="58" height="108" rx="6" stroke="none"/><rect x="0.5" y="0.5" width="57" height="107" rx="5.5" fill="none"/></g><g transform="translate(779.5 428)" fill="none" stroke="#c6c9cf" stroke-width="1"><circle cx="4" cy="4" r="4" stroke="none"/><circle cx="4" cy="4" r="3.5" fill="none"/></g><line x2="57" transform="translate(755 355.5)" fill="none" stroke="#c6c9cf" stroke-width="1"/><g transform="translate(816.5 338)" fill="none" stroke="#c6c9cf" stroke-width="1"><rect width="104" height="108" rx="6" stroke="none"/><rect x="0.5" y="0.5" width="103" height="107" rx="5.5" fill="none"/></g><g transform="translate(836.5 356)" fill="none" stroke="#c6c9cf" stroke-width="1"><circle cx="13.5" cy="13.5" r="13.5" stroke="none"/><circle cx="13.5" cy="13.5" r="13" fill="none"/></g><path d="M11467.844,1422.388l39.779-24.235,24.473,18.063,38.355-26.588" transform="translate(-10650.5 -1002)" fill="none" stroke="#c6c9cf" stroke-width="1"/><g transform="translate(924.5 338)" fill="none" stroke="#c6c9cf" stroke-width="1"><rect width="80" height="108" rx="6" stroke="none"/><rect x="0.5" y="0.5" width="79" height="107" rx="5.5" fill="none"/></g><g transform="translate(934.5 348)" fill="none" stroke="#c6c9cf" stroke-width="1"><rect width="56" height="6" rx="3" stroke="none"/><rect x="0.5" y="0.5" width="55" height="5" rx="2.5" fill="none"/></g><g transform="translate(934.5 374)" fill="none" stroke="#c6c9cf" stroke-width="1"><rect width="56" height="6" rx="3" stroke="none"/><rect x="0.5" y="0.5" width="55" height="5" rx="2.5" fill="none"/></g><g transform="translate(934.5 383)" fill="none" stroke="#c6c9cf" stroke-width="1"><rect width="48" height="6" rx="3" stroke="none"/><rect x="0.5" y="0.5" width="47" height="5" rx="2.5" fill="none"/></g><g transform="translate(934.5 357)" fill="none" stroke="#c6c9cf" stroke-width="1"><rect width="39" height="6" rx="3" stroke="none"/><rect x="0.5" y="0.5" width="38" height="5" rx="2.5" fill="none"/></g></g></svg>