<svg width="73" height="71" viewBox="0 0 73 71" fill="none" xmlns="http://www.w3.org/2000/svg">
<path d="M59.4815 13.6538H52.7222V8.19231C52.7222 3.68654 49.0722 0 44.6111 0H28.3889C23.9278 0 20.2778 3.68654 20.2778 8.19231V13.6538H13.5185C6.08333 13.6538 0 19.7981 0 27.3077V57.3462C0 64.8558 6.08333 71 13.5185 71H59.4815C66.9167 71 73 64.8558 73 57.3462V27.3077C73 19.7981 66.9167 13.6538 59.4815 13.6538ZM25.6852 8.19231C25.6852 6.69038 26.9019 5.46154 28.3889 5.46154H44.6111C46.0981 5.46154 47.3148 6.69038 47.3148 8.19231V13.6538H25.6852V8.19231ZM13.5185 19.1154H59.4815C63.9426 19.1154 67.5926 22.8019 67.5926 27.3077V30.0385H5.40741V27.3077C5.40741 22.8019 9.05741 19.1154 13.5185 19.1154ZM41.2315 35.5C40.2852 37.1385 38.5278 38.2308 36.5 38.2308C34.4722 38.2308 32.7148 37.1385 31.7685 35.5H41.2315ZM59.4815 65.5385H13.5185C9.05741 65.5385 5.40741 61.8519 5.40741 57.3462V35.5H26.0907C27.3074 40.1423 31.4981 43.6923 36.5 43.6923C41.5019 43.6923 45.6926 40.1423 46.9093 35.5H67.5926V57.3462C67.5926 61.8519 63.9426 65.5385 59.4815 65.5385Z" fill="#1942D3"/>
</svg>
