<?xml version="1.0" encoding="UTF-8"?>
<svg width="36px" height="36px" viewBox="0 0 36 36" version="1.1" xmlns="http://www.w3.org/2000/svg" xmlns:xlink="http://www.w3.org/1999/xlink">
    <title>收藏 (1)</title>
    <g id="Nearhub-白板模块" stroke="none" stroke-width="1" fill="none" fill-rule="evenodd">
        <g id="白板-用户管理界面-已登录模式-切换团队" transform="translate(-1504.000000, -440.000000)" fill="#F2E720" fill-rule="nonzero">
            <g id="收藏-选中" transform="translate(1504.000000, 440.000000)">
                <path d="M17.9988433,1.25619781e-15 C16.9919243,1.25619781e-15 16.0756435,0.58458007 15.6461944,1.50082167 L11.5739067,10.2274598 L2.20668052,11.6657755 C1.24415926,11.8118187 0.443543816,12.4930976 0.134431378,13.4186563 C-0.174681101,14.348964 0.058535345,15.3736638 0.738814155,16.0720391 L7.60344215,23.1493701 L6.01155368,32.9621738 C5.84956214,33.9525903 6.26418337,34.9431426 7.07774098,35.5233355 C7.52570336,35.8378553 8.04951889,36 8.57522006,36 C9.00651189,36 9.44058925,35.8905919 9.8339116,35.6757107 L17.999786,31.1356155 L26.1675462,35.6756655 C26.5599257,35.8905468 26.9931032,36 27.423495,36 C27.950139,36 28.4739117,35.8378101 28.9218741,35.5232902 C29.7354317,34.9430974 30.149153,33.9525451 29.9881471,32.9621286 L28.3962158,23.1493248 L35.2617437,16.0719939 C35.9410798,15.3731211 36.1751533,14.3489188 35.8651408,13.4186111 C35.5551284,12.4930524 34.7545559,11.8118187 33.7919917,11.6657303 L24.4247656,10.2274598 L20.3524349,1.50082167 C19.9258143,0.584625285 19.0076478,1.25619781e-15 17.9988433,1.25619781e-15 L17.9988433,1.25619781e-15 Z" id="路径"></path>
            </g>
        </g>
    </g>
</svg>