<svg xmlns="http://www.w3.org/2000/svg" width="82.995" height="75" viewBox="0 0 82.995 75"><g transform="translate(-505.306 -220.39)"><g transform="translate(524.59 235.301)"><g transform="translate(0 0)"><path d="M796.567,332.4a.211.211,0,0,1,.178.239l-7.226,49.928a.211.211,0,0,1-.239.178l-54.162-7.839a.211.211,0,0,1-.178-.239l7.226-49.927a.211.211,0,0,1,.238-.178l54.162,7.839m.136-.941-54.162-7.838a1.161,1.161,0,0,0-1.316.983L734,374.53a1.162,1.162,0,0,0,.983,1.316l54.162,7.838a1.161,1.161,0,0,0,1.316-.983l7.226-49.928a1.161,1.161,0,0,0-.983-1.316Z" transform="translate(-733.987 -323.608)" fill="#b7bec7"/></g></g><path d="M699.2,333.916l-5.948,1.311a2.38,2.38,0,0,1-2.833-1.81l-4.247-19.267a2.38,2.38,0,0,1,1.81-2.833l19.267-4.246a2.38,2.38,0,0,1,2.833,1.81l.146.663,1.006.146-.223-1.014a3.332,3.332,0,0,0-3.966-2.534l-19.267,4.247a3.332,3.332,0,0,0-2.534,3.966l4.247,19.267a3.332,3.332,0,0,0,3.966,2.534l5.6-1.234Z" transform="translate(-172.177 -74.418)" fill="#b7bec7"/><path d="M812.113,299.856a7.13,7.13,0,1,1,14.07,2.036l.943.136a8.08,8.08,0,1,0-15.957-2.31Z" transform="translate(-268.232 -63.886)" fill="#b7bec7"/><path d="M671.4,319.692l-6.482,1.429a.211.211,0,0,1-.251-.16L653.813,271.7a.211.211,0,0,1,.16-.251l53.444-11.779a.211.211,0,0,1,.251.16l3.828,17.368,1.006.146-3.9-17.718a1.161,1.161,0,0,0-1.384-.884l-53.444,11.779a1.161,1.161,0,0,0-.884,1.384l10.858,49.265a1.161,1.161,0,0,0,1.384.884l6.132-1.351Z" transform="translate(-147.552 -38.32)" fill="#b7bec7"/><g transform="translate(525.917 264.207)"><path d="M739.952,456.778l-.384-.87,24.857-10.987,8.6,11.9,25.8-12.231.407.859-26.513,12.57L764.105,446.1Z" transform="translate(-739.568 -444.588)" fill="#b7bec7"/></g><g transform="translate(541.206 247.969)"><path d="M809.39,388.468a6.418,6.418,0,1,1,7.271-5.432A6.425,6.425,0,0,1,809.39,388.468Zm1.7-11.763a5.467,5.467,0,1,0,4.628,6.194A5.473,5.473,0,0,0,811.092,376.705Z" transform="translate(-803.89 -375.697)" fill="#b7bec7"/></g></g></svg>