<?xml version="1.0" encoding="UTF-8"?>
<svg width="36px" height="36px" viewBox="0 0 36 36" version="1.1" xmlns="http://www.w3.org/2000/svg" xmlns:xlink="http://www.w3.org/1999/xlink">
    <title>链接</title>
    <g id="Nearhub-白板模块" stroke="none" stroke-width="1" fill="none" fill-rule="evenodd">
        <g id="白板-已登录-邀请分享按钮关闭" transform="translate(-1090.000000, -1362.000000)" fill="#000000" fill-rule="nonzero">
            <g id="编组-13" transform="translate(970.000000, 674.000000)">
                <g id="编组-4" transform="translate(120.000000, 680.000000)">
                    <g id="链接" transform="translate(0.000000, 8.000000)">
                        <path d="M21.1282808,24.5486405 C18.5794921,24.5445824 16.1370871,23.5260117 14.340116,21.7177314 L13.0806251,20.4577314 L15.395144,18.1422769 L16.6546348,19.4022769 C19.0207896,21.7802141 22.8268446,21.9091637 25.3483929,19.6968224 L25.4219995,19.6313678 C25.493772,19.5697912 25.5620336,19.5042336 25.6264623,19.4350042 L30.8034603,14.2559133 C32.0001076,13.0643832 32.6728497,11.4449563 32.6728497,9.75591326 C32.6728497,8.06687018 32.0001076,6.44744328 30.8034603,5.25591326 L30.7053181,5.15773144 C29.5142696,3.96060039 27.8954972,3.28758632 26.2071366,3.28758632 C24.5187761,3.28758632 22.9000036,3.96060039 21.7089551,5.15773144 L19.0672958,7.80045872 C18.9980943,7.86491348 18.9325632,7.93320267 18.8710115,8.00500417 L17.8486975,9.28136781 L15.2970018,7.23591326 L16.3520299,5.95136781 C16.4898405,5.78468238 16.637307,5.62622837 16.7936695,5.47682235 L19.4353288,2.83409508 C21.2403165,1.01991207 23.6934897,1.93784382e-15 26.2521184,1.93784382e-15 C28.8107472,1.93784382e-15 31.2639204,1.01991207 33.0689081,2.83409508 L33.1670502,2.9322769 C34.9805001,4.7379943 36,7.19215922 36,9.75182235 C36,12.3114855 34.9805001,14.7656504 33.1670502,16.5713678 L27.9900522,21.7504587 C27.8525531,21.8914635 27.7078737,22.0252777 27.5565911,22.1513678 C25.7907758,23.7203666 23.514532,24.5928432 21.1528163,24.6059133 L21.1282808,24.5486405 Z" id="路径"></path>
                        <path d="M9.7437923,36.0031995 C7.18613661,36.0074802 4.73302592,34.9881291 2.93109194,33.1722769 L2.8329498,33.0740951 C1.01949992,31.2683777 1.93706073e-15,28.8142128 1.93706073e-15,26.2545496 C1.93706073e-15,23.6948865 1.01949992,21.2407216 2.8329498,19.4350042 L8.00994779,14.2559133 C8.14744695,14.1149085 8.29212628,13.9810943 8.44340892,13.8550042 C12.2546626,10.4772756 18.036069,10.6529752 21.6353485,14.2559133 L22.8948393,15.5486405 L20.5803205,17.8640951 L19.3208297,16.6040951 C16.9546749,14.2261578 13.1486198,14.0972083 10.6270716,16.3095496 L10.553465,16.3750042 C10.4816925,16.4365808 10.4134309,16.5021384 10.3490022,16.5713678 L5.17200418,21.7504587 C3.9753569,22.9419887 3.3026148,24.5614156 3.3026148,26.2504587 C3.3026148,27.9395018 3.9753569,29.5589287 5.17200418,30.7504587 L5.27014632,30.8486405 C6.46119484,32.0457716 8.07996731,32.7187857 9.76832784,32.7187857 C11.4566884,32.7187857 13.0754608,32.0457716 14.2665093,30.8486405 L16.9081687,28.2059133 C16.9773701,28.1414585 17.0429013,28.0731693 17.104453,28.0013678 L18.1267669,26.7250042 L20.6866411,28.7704587 L19.6234346,30.0550042 C19.485624,30.2216896 19.3381574,30.3801436 19.181795,30.5295496 L16.5401356,33.1722769 C14.7421945,34.9840983 12.295779,36.0031995 9.7437923,36.0031995 L9.7437923,36.0031995 Z" id="路径"></path>
                    </g>
                </g>
            </g>
        </g>
    </g>
</svg>