<svg width="67" height="74" viewBox="0 0 67 74" fill="none" xmlns="http://www.w3.org/2000/svg">
<path d="M46.3898 14.9647L38.2768 10.4346C36.8244 9.62374 35.177 9.19684 33.5001 9.19684C31.8231 9.19684 30.1757 9.62374 28.7233 10.4346L20.6095 14.9647C19.1274 15.7923 19.7349 17.9837 21.4463 17.9837H45.5538C47.2652 17.9837 47.8727 15.7923 46.3898 14.9647Z" fill="#1942D3"/>
<path d="M33.5 74.0001C31.2572 74.002 29.0533 73.4121 27.1099 72.2895L6.3901 60.2955C4.44968 59.1682 2.83829 57.5502 1.71695 55.603C0.595605 53.6558 0.00357009 51.4477 0 49.1992V25.2111C0.00357009 22.9627 0.595605 20.7546 1.71695 18.8074C2.83829 16.8602 4.44968 15.2421 6.3901 14.1149L27.1099 2.12083C29.054 0.999859 31.2574 0.409912 33.5 0.409912C35.7426 0.409912 37.946 0.999859 39.8901 2.12083L60.6099 14.1149C62.5503 15.2421 64.1617 16.8602 65.2831 18.8074C66.4044 20.7546 66.9964 22.9627 67 25.2111V49.1992C66.9964 51.4477 66.4044 53.6558 65.2831 55.603C64.1617 57.5502 62.5503 59.1682 60.6099 60.2955L39.8901 72.2895C37.9467 73.4121 35.7429 74.002 33.5 74.0001ZM33.5 4.45552C31.9656 4.45433 30.458 4.85805 29.1285 5.6261L8.40871 17.6201C7.08124 18.3913 5.97887 19.4982 5.21175 20.8303C4.44463 22.1624 4.03963 23.673 4.03722 25.2111V49.1992C4.03963 50.7374 4.44463 52.248 5.21175 53.5801C5.97887 54.9122 7.08124 56.0191 8.40871 56.7902L29.1285 68.7842C30.4584 69.5512 31.9658 69.9549 33.5 69.9549C35.0342 69.9549 36.5416 69.5512 37.8715 68.7842L58.5913 56.7902C59.9188 56.0191 61.0211 54.9122 61.7883 53.5801C62.5554 52.248 62.9604 50.7374 62.9628 49.1992V25.2111C62.9604 23.673 62.5554 22.1624 61.7883 20.8303C61.0211 19.4982 59.9188 18.3913 58.5913 17.6201L37.8715 5.6261C36.542 4.85805 35.0344 4.45433 33.5 4.45552Z" fill="#1942D3"/>
<path d="M10.5478 44.3419C9.37388 44.3419 8.78693 43.7641 8.78693 42.6084V30.7009C8.78693 29.5451 9.37388 28.9673 10.5478 28.9673H16.9831C18.157 28.9673 18.7439 29.4763 18.7439 30.4943C18.7439 31.5262 18.157 32.0422 16.9831 32.0422H12.6442C12.6299 32.0402 12.6154 32.0415 12.6018 32.046C12.5882 32.0504 12.5758 32.0579 12.5656 32.0679C12.5554 32.0779 12.5476 32.09 12.543 32.1034C12.5384 32.1168 12.537 32.1311 12.5389 32.1451V35.3028C12.5368 35.3169 12.5381 35.3312 12.5427 35.3447C12.5473 35.3582 12.555 35.3705 12.5652 35.3806C12.5754 35.3906 12.5879 35.3982 12.6016 35.4027C12.6153 35.4072 12.6299 35.4085 12.6442 35.4065H16.8239C17.9978 35.4065 18.5847 35.9155 18.5847 36.9335C18.5847 37.9654 17.9978 38.4814 16.8239 38.4814H12.6442C12.6302 38.4798 12.6161 38.4814 12.6029 38.486C12.5897 38.4906 12.5777 38.4981 12.5678 38.5079C12.558 38.5177 12.5506 38.5297 12.5461 38.5428C12.5417 38.5559 12.5403 38.5698 12.5421 38.5835V42.6076C12.5421 43.7633 11.9552 44.3411 10.7813 44.3411L10.5478 44.3419ZM22.3073 44.3419C21.1334 44.3419 20.5464 43.7641 20.5464 42.6084V30.7009C20.5464 29.5451 21.1334 28.9673 22.3073 28.9673H26.269C30.3361 28.9673 32.3694 30.5838 32.3688 33.8168C32.3688 35.9498 31.5095 37.4152 29.7908 38.213C29.7206 38.2403 29.7002 38.2821 29.7279 38.3367L32.1598 42.5883C32.8298 43.7574 32.4804 44.3419 31.1116 44.3419H30.4585C29.4659 44.3419 28.739 43.9085 28.2781 43.0415L26.269 39.2264C26.2216 39.1364 26.1492 39.0614 26.0601 39.0103C25.9711 38.9592 25.8692 38.9341 25.7662 38.9379H24.4037C24.3894 38.9357 24.3748 38.9369 24.3611 38.9413C24.3474 38.9457 24.3349 38.9532 24.3247 38.9632C24.3144 38.9732 24.3067 38.9854 24.3022 38.9989C24.2976 39.0124 24.2963 39.0267 24.2984 39.0408V42.6108C24.2984 43.7665 23.7114 44.3443 22.5375 44.3443L22.3073 44.3419ZM24.2976 35.9216C24.2955 35.9357 24.2968 35.9501 24.3014 35.9636C24.306 35.9771 24.3137 35.9893 24.3239 35.9994C24.3341 36.0095 24.3466 36.017 24.3603 36.0215C24.374 36.026 24.3886 36.0273 24.4029 36.0253H25.9752C27.8054 36.0253 28.7205 35.2891 28.7205 33.8168C28.7205 33.1149 28.483 32.6128 28.0079 32.3106C27.5752 32.0347 26.8976 31.897 25.9752 31.8975H24.4037C24.3893 31.8954 24.3746 31.8966 24.3608 31.901C24.347 31.9055 24.3344 31.913 24.3241 31.9231C24.3138 31.9332 24.306 31.9455 24.3014 31.9591C24.2968 31.9726 24.2955 31.9871 24.2976 32.0012V35.9216ZM36.2473 44.3419C35.0734 44.3419 34.4864 43.7641 34.4864 42.6084V30.7009C34.4864 29.5451 35.0734 28.9673 36.2473 28.9673H42.9797C44.1536 28.9673 44.7406 29.4763 44.7406 30.4943C44.7406 31.5262 44.1536 32.0422 42.9797 32.0422H38.3428C38.3286 32.0402 38.3142 32.0415 38.3006 32.0459C38.2869 32.0504 38.2746 32.0579 38.2644 32.0679C38.2543 32.0779 38.2466 32.09 38.2421 32.1034C38.2376 32.1168 38.2363 32.1311 38.2384 32.1451V34.7868C38.2363 34.8008 38.2376 34.8151 38.2421 34.8285C38.2466 34.8419 38.2543 34.854 38.2644 34.864C38.2746 34.874 38.2869 34.8815 38.3006 34.886C38.3142 34.8904 38.3286 34.8917 38.3428 34.8897H43.0491C44.223 34.8897 44.81 35.4057 44.81 36.4376C44.81 37.4695 44.223 37.9855 43.0491 37.9855H38.3428C38.3286 37.9836 38.3141 37.985 38.3005 37.9896C38.2869 37.9942 38.2746 38.0017 38.2644 38.0118C38.2543 38.0218 38.2467 38.0341 38.2422 38.0475C38.2376 38.0609 38.2363 38.0752 38.2384 38.0892V41.1432C38.2363 41.1572 38.2376 41.1715 38.2421 41.1849C38.2466 41.1983 38.2543 41.2104 38.2644 41.2204C38.2746 41.2304 38.2869 41.2379 38.3006 41.2424C38.3142 41.2468 38.3286 41.2481 38.3428 41.2461H42.8499C44.0238 41.2461 44.6108 41.7621 44.6108 42.794C44.6108 43.826 44.0238 44.3419 42.8499 44.3419H36.2473ZM48.5513 44.3419C47.3774 44.3419 46.7904 43.7641 46.7904 42.6084V30.7009C46.7904 29.5451 47.3774 28.9673 48.5513 28.9673H55.2845C56.4585 28.9673 57.0454 29.4763 57.0454 30.4943C57.0454 31.5262 56.4585 32.0422 55.2845 32.0422H50.6477C50.6335 32.0402 50.619 32.0415 50.6054 32.0459C50.5918 32.0504 50.5794 32.0579 50.5693 32.0679C50.5591 32.0779 50.5515 32.09 50.5469 32.1034C50.5424 32.1168 50.5411 32.1311 50.5432 32.1451V34.7868C50.5411 34.8008 50.5424 34.8151 50.5469 34.8285C50.5515 34.8419 50.5591 34.854 50.5693 34.864C50.5794 34.874 50.5918 34.8815 50.6054 34.886C50.619 34.8904 50.6335 34.8917 50.6477 34.8897H55.3539C56.5278 34.8876 57.1148 35.4035 57.1148 36.4376C57.1148 37.4717 56.5278 37.9877 55.3539 37.9855H50.6477C50.6334 37.9835 50.6188 37.9847 50.6051 37.9892C50.5915 37.9937 50.579 38.0013 50.5689 38.0114C50.5587 38.0215 50.5511 38.0338 50.5466 38.0473C50.5422 38.0608 50.541 38.0752 50.5432 38.0892V41.1432C50.5411 41.1572 50.5424 41.1715 50.5469 41.1849C50.5515 41.1983 50.5591 41.2104 50.5693 41.2204C50.5794 41.2304 50.5918 41.2379 50.6054 41.2424C50.619 41.2468 50.6335 41.2481 50.6477 41.2461H55.1556C56.3295 41.2461 56.9164 41.7621 56.9164 42.794C56.9164 43.826 56.3295 44.3419 55.1556 44.3419H48.5513Z" fill="#1942D3"/>
</svg>
