<?xml version="1.0" encoding="UTF-8"?>
<svg width="36px" height="36px" viewBox="0 0 36 36" version="1.1" xmlns="http://www.w3.org/2000/svg" xmlns:xlink="http://www.w3.org/1999/xlink">
    <title>收藏 (1)</title>
    <g id="Nearhub-白板模块" stroke="none" stroke-width="1" fill="none" fill-rule="evenodd">
        <g id="白板-用户管理界面-已登录模式-用户设置" transform="translate(-1504.000000, -440.000000)" fill="#000000" fill-rule="nonzero">
            <g id="收藏-(1)" transform="translate(1504.000000, 440.000000)">
                <path d="M10.5333517,35.5076524 C9.01818142,36.4731751 7.03680499,35.9737986 6.11654273,34.4018244 C5.68028616,33.6554542 5.54469716,32.7641362 5.73853768,31.916942 L7.69966384,23.3393901 C7.74724902,23.1359736 7.68208741,22.9221871 7.53001159,22.7827839 L1.11067592,17.0459547 C-0.222691855,15.855205 -0.376593909,13.7727775 0.763271274,12.3844926 C1.31109932,11.7155024 2.09686518,11.298766 2.94580039,11.2269731 L11.3703628,10.5231384 C11.5539653,10.5074463 11.7182174,10.3832945 11.7933685,10.1945284 L15.0392618,2.05266172 C15.7156208,0.356535639 17.5966459,-0.453451099 19.2378178,0.258691059 C20.0205256,0.599846271 20.6398142,1.24478455 20.9604408,2.05266172 L24.2063341,10.1940669 C24.2814851,10.3832945 24.4457373,10.5079079 24.6293398,10.5231384 L33.0548022,11.2274346 C34.8215258,11.3751244 36.1296932,12.9780213 35.9897414,14.7978377 C35.9239989,15.6662783 35.5289962,16.4736995 34.8894767,17.0468777 L28.470141,22.7837069 C28.320739,22.9170894 28.2532381,23.1330858 28.3004887,23.3398516 L30.2616149,31.9174035 C30.6675203,33.6919898 29.6136063,35.4799606 27.8932333,35.9077997 C27.0647554,36.1140194 26.1902257,35.9699923 25.4663509,35.508114 L18.2532047,30.9112661 C18.0982963,30.8115422 17.9014063,30.8115422 17.7464979,30.9112661 L10.5329016,35.508114 L10.5333517,35.5076524 Z M19.6788237,28.5588431 L26.89197,33.1556909 C27.0026714,33.2258436 27.1331732,33.2475356 27.2569248,33.216613 C27.5273784,33.1492295 27.7024308,32.8520036 27.6335798,32.5492393 L25.6724537,23.9716875 C25.3962501,22.7691691 25.7902736,21.5085301 26.6966673,20.694818 L33.116003,14.9584504 C33.2208544,14.8647597 33.2870053,14.728608 33.2987054,14.5799951 C33.3225557,14.2712309 33.1092529,14.0100044 32.8356493,13.9873894 L24.4101868,13.2826317 C23.2062896,13.1789902 22.1614385,12.3900025 21.7074508,11.241742 L18.4615574,3.10033686 C18.4108053,2.96953907 18.3116273,2.8646683 18.1857038,2.80864934 C17.9368504,2.70065111 17.6488466,2.82480291 17.5390452,3.10033686 L14.2927018,11.241742 C13.838714,12.3900025 12.793863,13.1789902 11.5899657,13.2826317 L3.16495332,13.9873894 C3.03367872,13.9991108 2.91245056,14.0642692 2.82834882,14.1683095 C2.63759311,14.4045858 2.66240394,14.7530975 2.8845996,14.9584504 L9.30393526,20.6952795 C10.210329,21.5089916 10.6043525,22.7696306 10.3281489,23.972149 L8.36702276,32.5492393 C8.33349894,32.6948079 8.35640996,32.84804 8.43092358,32.9766169 C8.57807555,33.2272282 8.87732952,33.3024578 9.10863263,33.1552294 L16.3222289,28.5588431 C17.3497454,27.9030727 18.6513072,27.9030727 19.6788237,28.5588431 Z" id="形状"></path>
            </g>
        </g>
    </g>
</svg>