<?xml version="1.0" encoding="UTF-8"?>
<svg width="36px" height="36px" viewBox="0 0 36 36" version="1.1" xmlns="http://www.w3.org/2000/svg" xmlns:xlink="http://www.w3.org/1999/xlink">
    <title>官方模版</title>
    <g id="Nearhub-白板模块" stroke="none" stroke-width="1" fill="none" fill-rule="evenodd">
        <g id="白板-用户管理界面-已登录模式-用户设置" transform="translate(-76.000000, -680.000000)" fill="#000000" fill-rule="nonzero">
            <g id="官方模版" transform="translate(76.000000, 680.000000)">
                <path d="M0,3.0080001 C0,2.21016384 0.316633035,1.44494393 0.880788483,0.880788483 C1.44494393,0.316633035 2.21016384,0 3.0080001,0 L32.9919999,0 C33.7898362,0 34.5550561,0.316633051 35.1192115,0.880788498 C35.683367,1.44494394 36,2.21016385 36,3.0080001 L36,32.9919999 C36,34.6532724 34.6532724,36 32.9919999,36 L3.0080001,36 C1.34672758,36 0,34.6532724 0,32.9919999 L0,3.0080001 Z M3.41998692,5.03200007 L3.41998692,19.628 C3.41998692,20.5192 4.14800007,21.2400966 5.04480007,21.2400966 L13.136,21.2400966 C13.566409,21.2447171 13.9807237,21.0765911 14.2861379,20.7732822 C14.5915522,20.4699732 14.7625399,20.0568313 14.7608132,19.6264 L14.7608132,5.03360009 C14.7595295,4.60409495 14.5875799,4.19270996 14.2828241,3.89005481 C13.9780682,3.58739966 13.5655037,3.4182997 13.136,3.41990342 L5.04480007,3.41990342 C4.61439108,3.41528298 4.20007634,3.58340897 3.89466213,3.88671791 C3.58924793,4.19002685 3.41826019,4.60316877 3.41998692,5.03360009 L3.41998692,5.03200007 Z M17.9999972,4.40000008 L17.9999972,6.40000008 C17.9999972,6.8416001 18.724,7.20000005 19.6168,7.20000005 L30.9632,7.20000005 C31.392,7.20000005 31.8031999,7.11600006 32.1071999,6.96640006 C32.4095999,6.81600006 32.5799999,6.61360006 32.5799999,6.40160006 L32.5799999,4.40000008 C32.5799999,4.18800009 32.4103999,3.98480007 32.1071999,3.83440007 C31.8031999,3.68480008 31.3927999,3.60000008 30.9632,3.60000008 L19.6168,3.60000008 C19.188,3.60000008 18.7768,3.68400007 18.4728,3.83440007 C18.1696,3.98400006 17.9992,4.18720008 17.9999972,4.39920007 L17.9999972,4.40000008 Z M3.42000007,26.1 L3.42000007,30.96 C3.42000007,31.8608 4.14080007,32.5799999 5.02800006,32.5799999 L30.9719999,32.5799999 C31.8631134,32.5760316 32.582657,31.8511182 32.580024,30.96 L32.580024,26.1 C32.58234,25.6717145 32.414062,25.2601213 32.1123418,24.9561495 C31.8106216,24.6521777 31.400291,24.4808442 30.9719999,24.48 L5.02720009,24.48 C4.13608666,24.4839683 3.41654305,25.2088817 3.41919277,26.1 L3.42000007,26.1 Z M17.9999972,10.8792 L17.9999972,12.8808 C17.9999972,13.3208 18.7152,13.68 19.5968,13.68 L30.8031999,13.68 C31.2271999,13.68 31.6335999,13.5960001 31.9327999,13.4456 C32.2319999,13.296 32.4007999,13.0928 32.4000028,12.8808 L32.4000028,10.8792 C32.4000028,10.4384 31.6855999,10.0808 30.8031999,10.08 L19.5968,10.08 C19.1728,10.08 18.7664,10.164 18.4672,10.3144001 C18.168,10.4640001 17.9992,10.6672001 17.9999972,10.8792 L17.9999972,10.8792 Z" id="形状"></path>
            </g>
        </g>
    </g>
</svg>