<?xml version="1.0" encoding="UTF-8"?>
<svg width="36px" height="36px" viewBox="0 0 36 36" version="1.1" xmlns="http://www.w3.org/2000/svg" xmlns:xlink="http://www.w3.org/1999/xlink">
    <title>分享</title>
    <g id="Nearhub-白板模块" stroke="none" stroke-width="1" fill="none" fill-rule="evenodd">
        <g id="白板-用户管理界面-已登录模式" transform="translate(-76.000000, -448.000000)" fill="#000000" fill-rule="nonzero">
            <g id="分享" transform="translate(76.000000, 448.000000)">
                <path d="M33.1551551,18.9474212 C33.1551551,18.162598 33.7913295,17.526373 34.5760903,17.526373 C35.3608512,17.526373 35.9970256,18.162598 35.9970256,18.9474212 L35.9970256,30.7894898 C35.9970256,33.6671125 33.6643236,36 30.7869298,36 L5.21009579,36 C2.33270197,36 1.893066e-15,33.6671125 1.893066e-15,30.7894898 L1.893066e-15,6.63166992 C1.893066e-15,3.75404725 2.33270197,1.42115976 5.21009579,1.42115976 L17.5248677,1.42115976 C18.3096285,1.42115976 18.9458029,2.05738472 18.9458029,2.84220799 C18.9458029,3.62703125 18.3096285,4.26325622 17.5248677,4.26325622 L5.21009579,4.26325622 C3.90216105,4.26325622 2.84187044,5.32363115 2.84187044,6.63166992 L2.84187044,30.7894898 C2.84187044,32.0975286 3.90216105,33.1579035 5.21009579,33.1579035 L30.7869298,33.1579035 C32.0948645,33.1579035 33.1551551,32.0975286 33.1551551,30.7894898 L33.1551551,18.9474212 Z M31.2875726,6.63166992 L27.3004284,2.39505145 C26.7626057,1.8234385 26.7899612,0.924028515 27.3615286,0.38616299 C27.9330961,-0.151702536 28.8324346,-0.124344882 29.3702573,0.44726802 L35.6110048,7.07882641 C36.4645132,7.98545518 35.8213032,9.47376638 34.5760903,9.47376638 L27.4434692,9.47376638 C23.8167688,9.47376638 20.8403832,12.6360724 20.8403832,16.5790075 L20.8403832,25.1052969 C20.8403832,25.8901202 20.2042088,26.5263451 19.419448,26.5263451 C18.6346871,26.5263451 17.9985128,25.8901202 17.9985128,25.1052969 L17.9985128,16.5790075 C17.9985128,11.1037087 22.2073229,6.63166992 27.4434692,6.63166992 L31.2875726,6.63166992 L31.2875726,6.63166992 Z" id="形状"></path>
            </g>
        </g>
    </g>
</svg>