<?xml version="1.0" encoding="UTF-8"?>
<svg width="48px" height="48px" viewBox="0 0 48 48" version="1.1" xmlns="http://www.w3.org/2000/svg" xmlns:xlink="http://www.w3.org/1999/xlink">
    <title>回收站 (1)</title>
    <g id="Nearhub-白板模块" stroke="none" stroke-width="1" fill="none" fill-rule="evenodd">
        <g id="白板-用户管理界面-已登录模式" transform="translate(-78.000000, -1883.000000)" fill="#000000" fill-rule="nonzero">
            <g id="编组-3" transform="translate(78.000000, 1867.000000)">
                <g id="回收站-(1)" transform="translate(0.000000, 16.000000)">
                    <path d="M6.64864865,42.5280567 C6.64864865,45.5333727 9.72972973,48 13.4918919,48 L34.5081081,48 C38.3027027,48 41.3513514,45.5617247 41.3513514,42.5280567 L44.5621622,13.9492026 L3.40540541,13.9492026 L6.64864865,42.5280567 Z M36,5.30183107 L31.4594595,5.30183107 L31.4594595,1.38924985 C31.4594595,0.623744832 30.7459459,0 29.8702703,0 L18.1297297,0 C17.2540541,0 16.5405405,0.623744832 16.5405405,1.38924985 L16.5405405,5.30183107 L0,5.30183107 L0,10.7737744 L48,10.7737744 L48,5.30183107 L36,5.30183107 Z M21.0810811,3.43059657 L26.9189189,3.43059657 L26.9189189,5.27347903 L21.0810811,5.27347903 L21.0810811,3.43059657 L21.0810811,3.43059657 Z" id="形状"></path>
                </g>
            </g>
        </g>
    </g>
</svg>