<?xml version="1.0" encoding="UTF-8"?>
<svg width="36px" height="30px" viewBox="0 0 36 30" version="1.1" xmlns="http://www.w3.org/2000/svg" xmlns:xlink="http://www.w3.org/1999/xlink">
    <title>编组 2</title>
    <g id="Nearhub-白板模块" stroke="none" stroke-width="1" fill="none" fill-rule="evenodd">
        <g id="白板-用户管理界面-已登录模式" transform="translate(-76.000000, -879.000000)" fill-rule="nonzero">
            <g id="编组-2" transform="translate(76.000000, 879.000000)">
                <g id="icons8-folder" fill="#000000">
                    <path d="M2.76923077,0 C1.23923077,0 0,1.22045455 0,2.72727273 L0,6.81818182 L15.2307692,6.81818182 L36,6.81818182 L36,5.45454545 C36,3.94772727 34.7607692,2.72727273 33.2307692,2.72727273 L12.7373802,2.72727273 L11.8828122,1.32368605 C11.382966,0.502776955 10.4817981,0 9.50841346,0 L2.76923077,0 Z M1.38461538,9.54545455 C0.620307692,9.54545455 0,10.1563636 0,10.9090909 L0,27.2727273 C0,28.7795455 1.23923077,30 2.76923077,30 L33.2307692,30 C34.7607692,30 36,28.7795455 36,27.2727273 L36,10.9090909 C36,10.1563636 35.3796923,9.54545455 34.6153846,9.54545455 L1.38461538,9.54545455 Z" id="形状"></path>
                </g>
                <g id="24gf-userGroup2" transform="translate(22.153846, 16.363636)" fill="#9D9D9D" fill-opacity="0.998781004">
                    <path d="M1.73076663,5.26859504 C1.73076663,3.77208161 2.82773013,2.55100722 4.20486147,2.48253486 C3.68465598,4.37028104 4.41070065,6.39793202 5.97439007,7.4243608 C5.51045605,7.83483183 4.92791459,8.05883206 4.32691658,8.05785444 C2.8930846,8.05785444 1.73076663,6.80907799 1.73076663,5.26859504 L1.73076663,5.26859504 Z M2.00318209,10.9487991 C2.26857603,10.2761541 2.71189952,9.70199601 3.27818017,9.29752067 L2.45191939,9.29752067 C1.0977617,9.29752067 0,10.4769358 0,11.9318182 L0,12.2417355 C0.000447096856,12.669443 0.323056426,13.0160486 0.721152759,13.0165289 L1.73878945,13.0165289 C1.73347353,12.9650731 1.73079521,12.9133421 1.73076663,12.8615703 L1.73076663,12.3966942 C1.72997392,11.8992863 1.82262886,11.406823 2.00318209,10.9487991 L2.00318209,10.9487991 Z M13.0012124,10.205288 C12.4614408,9.62217684 11.7269742,9.29530139 10.961522,9.29750944 L5.19229989,9.29750944 C3.5991732,9.29750944 2.30768885,10.6850679 2.30768885,12.3966942 L2.30768885,12.8615703 C2.30813595,13.2892777 2.63074528,13.6358833 3.02884161,13.6363636 L13.1249803,13.6363636 C13.5230766,13.6358833 13.8456859,13.2892777 13.8461435,12.8615703 L13.8461435,12.3966942 C13.8481987,11.5743063 13.5439535,10.7852088 13.0012124,10.205288 L13.0012124,10.205288 Z M11.5384442,3.71900827 C11.5384442,5.77298555 9.98868692,7.43801653 8.07691094,7.43801653 C6.16513496,7.43801653 4.61537768,5.77298553 4.61537768,3.71900827 C4.61537768,1.665031 6.16513498,0 8.07691094,0 C9.98868691,0 11.5384442,1.66503099 11.5384442,3.71900827 Z" id="形状"></path>
                </g>
            </g>
        </g>
    </g>
</svg>