<?xml version="1.0" encoding="UTF-8"?>
<svg width="36px" height="36px" viewBox="0 0 36 36" version="1.1" xmlns="http://www.w3.org/2000/svg" xmlns:xlink="http://www.w3.org/1999/xlink">
    <title>白板</title>
    <g id="Nearhub-白板模块" stroke="none" stroke-width="1" fill="none" fill-rule="evenodd">
        <g id="白板-用户管理界面-已登录模式-用户设置" transform="translate(-76.000000, -332.000000)" fill="#0A3EDB" fill-rule="nonzero">
            <g id="白板" transform="translate(76.000000, 332.000000)">
                <path d="M31.05,5.53846154 L5.175,5.53846154 C4.95,5.53846154 4.725,5.81538462 4.725,6.09230769 L4.725,29.6307692 C4.725,29.9076923 4.95,30.1846154 5.175,30.1846154 L7.875,30.1846154 L7.875,28.8 C7.875,27.9692308 8.325,27.4153846 9,27.4153846 L13.5,27.4153846 C14.175,27.4153846 14.625,27.9692308 14.625,28.8 L14.625,30.1846154 L30.825,30.1846154 C31.05,30.1846154 31.275,29.9076923 31.275,29.6307692 L31.275,6.09230769 C31.5,5.81538462 31.275,5.53846154 31.05,5.53846154 Z M33.75,31.8461538 C33.75,32.6769231 33.3,33.2307692 32.625,33.2307692 L3.375,33.2307692 C2.7,33.2307692 2.25,32.6769231 2.25,31.8461538 L2.25,4.15384615 C2.25,3.32307692 2.7,2.76923077 3.375,2.76923077 L32.625,2.76923077 C33.3,2.76923077 33.75,3.32307692 33.75,4.15384615 L33.75,31.8461538 Z M32.625,0 L3.375,0 C1.575,0 0,1.93846154 0,4.15384615 L0,31.8461538 C0,34.0615385 1.575,36 3.375,36 L32.625,36 C34.425,36 36,34.0615385 36,31.8461538 L36,4.15384615 C36,1.93846154 34.425,0 32.625,0 Z" id="形状"></path>
            </g>
        </g>
    </g>
</svg>