<svg width="87" height="68" viewBox="0 0 87 68" fill="none" xmlns="http://www.w3.org/2000/svg">
<path d="M28.044 5.4269L28.1124 5.43316C28.3088 5.18124 28.2541 5.20381 28.044 5.4269ZM21.3211 34.1907C21.3211 34.1907 24.4364 33.5503 24.4364 31.2379C24.3864 30.607 24.1348 30.0096 23.7195 29.535C23.3042 29.0605 22.7475 28.7345 22.1329 28.6059C18.4805 27.1533 15.5542 23.8232 15.5542 20.3051C15.5542 16.3208 20.0494 12.6862 24.1567 11.5231C25.0986 9.28102 26.4128 7.21731 28.0428 5.42063C27.7942 5.40308 27.5455 5.35421 27.2894 5.35421C17.8876 5.35421 10.2335 12.0633 10.2335 20.3051C10.2592 22.1924 10.6656 24.0547 11.4282 25.7785C12.1908 27.5023 13.2934 29.0515 14.6691 30.3317C5.79055 34.3624 0 42.4276 0 51.548V55.3443C0.0624586 56.1954 0.455816 56.9871 1.09445 57.5472C1.73308 58.1072 2.5653 58.3903 3.40994 58.3348H9.52122C9.52127 56.6833 9.75313 55.0402 10.2099 53.4543H5.32313V51.5555C5.32313 43.2924 12.23 36.2035 21.3211 34.1907ZM55.1097 31.8996C57.2937 30.2677 59.0667 28.1412 60.2859 25.6916C61.5051 23.242 62.1362 20.5379 62.1285 17.7972C62.1285 7.90848 53.9051 8.56765e-08 43.6181 0C33.3311 -8.56765e-08 25.1823 7.90973 25.1823 17.7972C25.1607 20.5327 25.7783 23.2348 26.9852 25.6848C28.192 28.1348 29.9542 30.2639 32.129 31.8996C26.4557 33.9745 21.5427 37.7405 18.0427 42.6972C14.5426 47.6539 12.6211 53.5669 12.5333 59.6507V65.0087C12.5523 65.8207 12.8903 66.5919 13.4731 67.1527C14.0559 67.7135 14.8358 68.018 15.6412 67.9991H71.5925C71.9913 68.0086 72.3881 67.9388 72.7602 67.7936C73.1323 67.6485 73.4724 67.4308 73.761 67.1531C74.0496 66.8754 74.2811 66.5431 74.4423 66.1751C74.6035 65.8072 74.6912 65.4108 74.7003 65.0087V59.6507C74.6142 53.5672 72.6939 47.6541 69.1946 42.6972C65.6953 37.7403 60.7827 33.9743 55.1097 31.8996ZM30.2232 17.7747C30.3825 14.3011 31.8632 11.023 34.3577 8.62165C36.8521 6.22029 40.1685 4.88037 43.6175 4.88037C47.0665 4.88037 50.3828 6.22029 52.8773 8.62165C55.3718 11.023 56.8525 14.3011 57.0117 17.7747C56.8459 21.2436 55.3624 24.5152 52.8686 26.9111C50.3749 29.3071 47.0622 30.6436 43.6175 30.6436C40.1727 30.6436 36.8601 29.3071 34.3663 26.9111C31.8726 24.5152 30.389 21.2436 30.2232 17.7747ZM68.7084 63.1588H18.5949V59.6232C18.5949 46.7728 30.2531 35.6182 43.6218 35.6182C56.9906 35.6182 68.7084 46.7728 68.7084 59.6232V63.1588ZM58.9025 5.43191C58.9261 5.43191 58.946 5.43191 58.9684 5.42564C58.7583 5.20255 58.7036 5.17999 58.9025 5.43191ZM72.3384 30.3405C73.714 29.0602 74.8167 27.511 75.5793 25.7872C76.3418 24.0634 76.7483 22.2012 76.7739 20.3139C76.7739 12.0708 69.1236 5.36298 59.7193 5.36298C59.4594 5.36298 59.2145 5.41186 58.9634 5.4294C60.5935 7.22502 61.907 9.2885 62.847 11.5306C66.9494 12.6962 71.8759 16.3283 71.8759 20.3139C71.8759 23.832 69.0876 27.1621 65.4389 28.6159C64.8242 28.7442 64.2673 29.0701 63.8519 29.5447C63.4365 30.0193 63.1851 30.6169 63.1354 31.2479C63.1354 33.559 66.2495 34.1995 66.2495 34.1995C75.3431 36.2148 82.1766 43.3036 82.1766 51.5681V53.4744H76.7938C77.2519 55.06 77.4834 56.7033 77.4813 58.3548H83.5913C84.436 58.411 85.2684 58.1281 85.907 57.5679C86.5456 57.0077 86.9385 56.2156 87 55.3644V51.558C87.0074 42.4351 81.2231 34.3712 72.3384 30.3405Z" fill="#1942D3"/>
</svg>
