<?xml version="1.0" encoding="UTF-8"?>
<svg width="36px" height="7px" viewBox="0 0 36 7" version="1.1" xmlns="http://www.w3.org/2000/svg" xmlns:xlink="http://www.w3.org/1999/xlink">
    <title>更多备份 4</title>
    <g id="Nearhub-白板模块" stroke="none" stroke-width="1" fill="none" fill-rule="evenodd">
        <g id="白板-用户管理界面-已登录模式" transform="translate(-2127.000000, -454.000000)" fill="#000000" fill-rule="nonzero">
            <g id="更多备份-4" transform="translate(2145.000000, 457.500000) rotate(-180.000000) translate(-2145.000000, -457.500000) translate(2127.000000, 454.000000)">
                <path d="M0,3.5 C0,5.43299662 1.75192924,7 3.91304348,7 C6.07415772,7 7.82608696,5.43299662 7.82608696,3.5 C7.82608696,1.56700338 6.07415772,0 3.91304348,0 C1.75192924,0 0,1.56700338 0,3.5 Z M14.0869565,3.5 C14.0869565,5.43299662 15.8388858,7 18,7 C20.1611142,7 21.9130435,5.43299662 21.9130435,3.5 C21.9130435,1.56700338 20.1611142,0 18,0 C15.8388858,0 14.0869565,1.56700338 14.0869565,3.5 Z M28.173913,3.5 C28.173913,5.43299662 29.9258423,7 32.0869565,7 C34.2480708,7 36,5.43299662 36,3.5 C36,1.56700338 34.2480708,0 32.0869565,0 C29.9258423,0 28.173913,1.56700338 28.173913,3.5 Z" id="形状"></path>
            </g>
        </g>
    </g>
</svg>