<?xml version="1.0" encoding="UTF-8"?>
<svg width="24px" height="24px" viewBox="0 0 24 24" version="1.1" xmlns="http://www.w3.org/2000/svg" xmlns:xlink="http://www.w3.org/1999/xlink">
    <title>添加备份</title>
    <g id="Nearhub-白板模块" stroke="none" stroke-width="1" fill="none" fill-rule="evenodd" opacity="0.499463036">
        <g id="白板-用户管理界面-已登录模式-用户设置" transform="translate(-501.000000, -882.000000)" fill="#000000" fill-rule="nonzero">
            <g id="添加备份" transform="translate(501.000000, 882.000000)">
                <path d="M21.9964727,13.9964727 L2.00352734,13.9964727 C0.902998242,13.9964727 0,13.1075838 0,11.9929453 C0,10.8924162 0.888888891,9.989418 2.00352734,9.989418 L21.9964727,9.989418 C23.0970018,9.989418 24,10.8783069 24,11.9929453 C24,13.1075838 23.1111111,13.9964727 21.9964727,13.9964727 L21.9964727,13.9964727 L21.9964727,13.9964727 Z M12.0070547,24 C10.9065256,24 10.0035273,23.1111111 10.0035273,21.9964727 L10.0035273,2.00352734 C10.0035273,0.888888891 10.8924162,0 12.0070547,0 C13.1075838,0 14.010582,0.888888891 14.010582,2.00352734 L14.010582,22.010582 C13.9964727,23.0970018 13.1075838,24 12.0070547,24 L12.0070547,24 L12.0070547,24 Z" id="形状"></path>
            </g>
        </g>
    </g>
</svg>