<?xml version="1.0" encoding="UTF-8"?>
<svg width="36px" height="36px" viewBox="0 0 36 36" version="1.1" xmlns="http://www.w3.org/2000/svg" xmlns:xlink="http://www.w3.org/1999/xlink">
    <title>确定</title>
    <g id="Nearhub-白板模块" stroke="none" stroke-width="1" fill="none" fill-rule="evenodd">
        <g id="白板-用户管理Team-付费提示选择" transform="translate(-1330.000000, -844.000000)" fill="#0A3EDB" fill-rule="nonzero">
            <g id="确定" transform="translate(1330.000000, 844.000000)">
                <path d="M25.4296875,11.765625 L15.478125,21.7171875 L10.5703125,16.8046875 C10.10625,16.340625 9.35625,16.340625 8.8921875,16.8046875 C8.428125,17.26875 8.428125,18.01875 8.8921875,18.4828125 L14.165625,23.75625 C14.5171875,24.1078125 14.98125,24.3 15.478125,24.3 C15.975,24.3 16.44375,24.1078125 16.790625,23.75625 L27.1078125,13.4390625 C27.571875,12.975 27.571875,12.225 27.1078125,11.7609375 C26.6484375,11.3015625 25.89375,11.3015625 25.4296875,11.765625 Z" id="路径"></path>
                <path d="M18,0 C8.0765625,0 0,8.0765625 0,18 C0,27.9234375 8.0765625,36 18,36 C27.9234375,36 36,27.9234375 36,18 C36,8.0765625 27.9234375,0 18,0 Z M18,33.628125 C9.384375,33.628125 2.371875,26.615625 2.371875,18 C2.371875,9.384375 9.384375,2.371875 18,2.371875 C26.615625,2.371875 33.628125,9.384375 33.628125,18 C33.628125,26.615625 26.615625,33.628125 18,33.628125 Z" id="形状"></path>
            </g>
        </g>
    </g>
</svg>