<?xml version="1.0" encoding="UTF-8"?>
<svg width="32px" height="32px" viewBox="0 0 32 32" version="1.1" xmlns="http://www.w3.org/2000/svg" xmlns:xlink="http://www.w3.org/1999/xlink">
    <title>确定备份 7</title>
    <g id="Nearhub-白板模块" stroke="none" stroke-width="1" fill="none" fill-rule="evenodd">
        <g id="白板-用户管理界面-已登录模式-限制团队" transform="translate(-1490.000000, -1184.000000)" fill-rule="nonzero">
            <g id="编组-13" transform="translate(1190.000000, 382.000000)">
                <g id="确定备份-7" transform="translate(300.000000, 802.000000)">
                    <path d="M16,0 C7.17916667,0 0,7.17916667 0,16 C0,24.8208333 7.17916667,32 16,32 C24.8208333,32 32,24.8208333 32,16 C32,7.17916667 24.8208333,0 16,0 Z" id="形状" fill="#0A3EDB"></path>
                    <path d="M22.2857851,10.9553239 L13.8664023,19.1948579 L9.7142149,15.1274855 C9.32160119,14.7432585 8.68707399,14.7432585 8.29446028,15.1274855 C7.90184657,15.5117125 7.90184657,16.1326854 8.29446028,16.5169123 L12.7559797,20.883128 C13.0534143,21.174209 13.446028,21.3333333 13.8664023,21.3333333 C14.2867766,21.3333333 14.6833561,21.174209 14.9768249,20.883128 L23.7055397,12.3408696 C24.0981534,11.9566427 24.0981534,11.3356698 23.7055397,10.9514428 C23.3168918,10.5710969 22.6783988,10.5710969 22.2857851,10.9553239 Z" id="路径" fill="#FFFFFF"></path>
                </g>
            </g>
        </g>
    </g>
</svg>