<?xml version="1.0" encoding="UTF-8"?>
<svg width="32px" height="32px" viewBox="0 0 32 32" version="1.1" xmlns="http://www.w3.org/2000/svg" xmlns:xlink="http://www.w3.org/1999/xlink">
    <title>确定备份 8</title>
    <g id="Nearhub-白板模块" stroke="none" stroke-width="1" fill="none" fill-rule="evenodd" opacity="0.498876662">
        <g id="白板-用户管理界面-已登录模式-限制团队" transform="translate(-1790.000000, -1184.000000)" fill="#000000" fill-rule="nonzero">
            <g id="编组-13" transform="translate(1190.000000, 382.000000)">
                <g id="确定备份-8" transform="translate(600.000000, 802.000000)">
                    <path d="M22.6041667,10.4583333 L13.7583333,19.3041667 L9.39583333,14.9375 C8.98333333,14.525 8.31666667,14.525 7.90416667,14.9375 C7.49166667,15.35 7.49166667,16.0166667 7.90416667,16.4291667 L12.5916667,21.1166667 C12.9041667,21.4291667 13.3166667,21.6 13.7583333,21.6 C14.2,21.6 14.6166667,21.4291667 14.925,21.1166667 L24.0958333,11.9458333 C24.5083333,11.5333333 24.5083333,10.8666667 24.0958333,10.4541667 C23.6875,10.0458333 23.0166667,10.0458333 22.6041667,10.4583333 Z" id="路径"></path>
                    <path d="M16,0 C7.17916667,0 0,7.17916667 0,16 C0,24.8208333 7.17916667,32 16,32 C24.8208333,32 32,24.8208333 32,16 C32,7.17916667 24.8208333,0 16,0 Z M16,29.8916667 C8.34166667,29.8916667 2.10833333,23.6583333 2.10833333,16 C2.10833333,8.34166667 8.34166667,2.10833333 16,2.10833333 C23.6583333,2.10833333 29.8916667,8.34166667 29.8916667,16 C29.8916667,23.6583333 23.6583333,29.8916667 16,29.8916667 Z" id="形状"></path>
                </g>
            </g>
        </g>
    </g>
</svg>