<?xml version="1.0" encoding="UTF-8"?>
<svg width="36px" height="36px" viewBox="0 0 36 36" version="1.1" xmlns="http://www.w3.org/2000/svg" xmlns:xlink="http://www.w3.org/1999/xlink">
    <title>添加备份 2</title>
    <g id="Nearhub-白板模块" stroke="none" stroke-width="1" fill="none" fill-rule="evenodd">
        <g id="白板-用户管理界面-已登录模式-切换团队" transform="translate(-1037.000000, -619.000000)" fill="#FFFFFF" fill-rule="nonzero">
            <g id="编组-11" transform="translate(983.000000, 583.000000)">
                <g id="编组-6" transform="translate(18.000000, 0.000000)">
                    <g id="添加备份-2" transform="translate(36.000000, 36.000000)">
                        <path d="M32.994709,21 L3.005291,21 C1.35449736,21 0,19.6690141 0,18 C0,16.3521127 1.33333334,15 3.005291,15 L32.994709,15 C34.6455026,15 36,16.3309859 36,18 C36,19.6690141 34.6666667,21 32.994709,21 L32.994709,21 L32.994709,21 Z M18,36 C16.3521127,36 15,34.6666667 15,32.994709 L15,3.005291 C15,1.33333334 16.3309859,0 18,0 C19.6478873,0 21,1.33333334 21,3.005291 L21,33.015873 C20.9788733,34.6455026 19.6478873,36 18,36 L18,36 L18,36 Z" id="形状"></path>
                    </g>
                </g>
            </g>
        </g>
    </g>
</svg>