<?xml version="1.0" standalone="no"?><!DOCTYPE svg PUBLIC "-//W3C//DTD SVG 1.1//EN" "http://www.w3.org/Graphics/SVG/1.1/DTD/svg11.dtd"><svg t="1660374058523" class="icon" viewBox="0 0 1024 1024" version="1.1" xmlns="http://www.w3.org/2000/svg" p-id="2086" xmlns:xlink="http://www.w3.org/1999/xlink" width="200" height="200"><defs><style type="text/css">@font-face { font-family: feedback-iconfont; src: url("//at.alicdn.com/t/font_1031158_u69w8yhxdu.woff2?t=1630033759944") format("woff2"), url("//at.alicdn.com/t/font_1031158_u69w8yhxdu.woff?t=1630033759944") format("woff"), url("//at.alicdn.com/t/font_1031158_u69w8yhxdu.ttf?t=1630033759944") format("truetype"); }
</style></defs><path d="M512 576a320 320 0 0 0-320 320 32 32 0 1 1-64 0 384.128 384.128 0 0 1 247.872-359.168A256 256 0 1 1 512 576z m256 192v-96a32 32 0 1 1 64 0V768h96a32 32 0 1 1 0 64H832v96a32 32 0 1 1-64 0V832h-96a32 32 0 1 1 0-64H768zM512 512a192 192 0 1 0 0-384 192 192 0 0 0 0 384z" p-id="2087"></path></svg>