<?xml version="1.0" encoding="UTF-8"?>
<svg width="48px" height="48px" viewBox="0 0 48 48" version="1.1" xmlns="http://www.w3.org/2000/svg" xmlns:xlink="http://www.w3.org/1999/xlink">
    <title>收藏 (1)</title>
    <g id="Nearhub-白板模块" stroke="none" stroke-width="1" fill="none" fill-rule="evenodd" opacity="0.779999971">
        <g id="白板-游客模式" transform="translate(-688.000000, -40.000000)" fill="#000000" fill-rule="nonzero">
            <g id="收藏-(1)" transform="translate(688.000000, 40.000000)">
                <path d="M14.0444689,47.3435366 C12.0242419,48.6309001 9.38240666,47.9650648 8.1553903,45.8690992 C7.57371488,44.873939 7.39292954,43.6855149 7.65138357,42.5559227 L10.2662184,31.1191868 C10.3296654,30.8479648 10.2427832,30.5629162 10.0400154,30.3770451 L1.48090123,22.7279396 C-0.296922473,21.1402733 -0.502125211,18.3637033 1.01769503,16.5126567 C1.74813243,15.6206699 2.79582024,15.0650213 3.92773385,14.9692974 L15.1604838,14.0308512 C15.405287,14.0099285 15.6242899,13.8443927 15.7244913,13.5927045 L20.052349,2.73688229 C20.9541611,0.475380853 23.4621945,-0.604601466 25.6504237,0.344921412 C26.6940342,0.799795027 27.5197523,1.65971273 27.9472544,2.73688229 L32.2751121,13.5920892 C32.3753135,13.8443927 32.5943164,14.0105438 32.8391197,14.0308512 L44.0730696,14.9699127 C46.428701,15.1668326 48.1729243,17.3040284 47.9863218,19.7304502 C47.8986652,20.8883711 47.3719949,21.9649326 46.5193022,22.7291703 L37.960188,30.3782759 C37.7609854,30.5561191 37.6709842,30.8441144 37.733985,31.1198022 L40.3488199,42.556538 C40.8900271,44.9226531 39.4848084,47.3066141 37.1909777,47.8770663 C36.0863405,48.1520259 34.9203009,47.9599897 33.9551346,47.344152 L24.3376062,41.2150215 C24.1310618,41.0820563 23.8685417,41.0820563 23.6619972,41.2150215 L14.0438688,47.344152 L14.0444689,47.3435366 Z M26.2384316,38.0784575 L35.85596,44.2075879 C36.0035619,44.3011248 36.1775642,44.3300475 36.3425664,44.2888174 C36.7031712,44.1989727 36.9365743,43.8026715 36.8447731,43.3989858 L34.2299382,31.9622499 C33.8616667,30.3588921 34.3870314,28.6780402 35.5955564,27.5930907 L44.1546707,19.9446006 C44.2944725,19.8196795 44.3826737,19.638144 44.3982739,19.4399934 C44.4300743,19.0283079 44.1456705,18.6800059 43.7808657,18.6498525 L32.5469158,17.7101756 C30.9417194,17.571987 29.5485847,16.5200033 28.9432677,14.9889894 L24.6154099,4.13378248 C24.5477404,3.95938542 24.4155031,3.81955773 24.247605,3.74486579 C23.9158006,3.60086814 23.5317955,3.76640388 23.3853935,4.13378248 L19.0569357,14.9889894 C18.4516187,16.5200033 17.058484,17.571987 15.4532876,17.7101756 L4.21993776,18.6498525 C4.04490496,18.6654811 3.88326741,18.7523589 3.77113176,18.8910793 C3.51679081,19.2061145 3.54987192,19.6707967 3.8461328,19.9446006 L12.405247,27.5937061 C13.613772,28.6786555 14.1391367,30.3595075 13.7708652,31.9628653 L11.1560303,43.3989858 C11.1113319,43.5930772 11.1418799,43.7973866 11.2412314,43.9688226 C11.4374341,44.302971 11.8364394,44.403277 12.1448435,44.2069725 L21.7629719,38.0784575 C23.1329939,37.2040969 24.8684096,37.2040969 26.2384316,38.0784575 Z" id="形状"></path>
            </g>
        </g>
    </g>
</svg>