<?xml version="1.0" encoding="UTF-8"?>
<svg width="10px" height="48px" viewBox="0 0 10 48" version="1.1" xmlns="http://www.w3.org/2000/svg" xmlns:xlink="http://www.w3.org/1999/xlink">
    <title>更多备份 3</title>
    <g id="Nearhub-白板模块" stroke="none" stroke-width="1" fill="none" fill-rule="evenodd">
        <g id="白板-已登录模式备份" transform="translate(-3215.000000, -1082.000000)" fill="#FFFFFF" fill-rule="nonzero">
            <g id="更多备份-3" transform="translate(3215.000000, 1082.000000)">
                <path d="M-19,24 C-19,26.7614237 -16.6640943,29 -13.7826087,29 C-10.901123,29 -8.56521739,26.7614237 -8.56521739,24 C-8.56521739,21.2385763 -10.901123,19 -13.7826087,19 C-16.6640943,19 -19,21.2385763 -19,24 Z M-0.217391304,24 C-0.217391304,26.7614237 2.11851435,29 5,29 C7.88148565,29 10.2173913,26.7614237 10.2173913,24 C10.2173913,21.2385763 7.88148565,19 5,19 C2.11851435,19 -0.217391304,21.2385763 -0.217391304,24 Z M18.5652174,24 C18.5652174,26.7614237 20.901123,29 23.7826087,29 C26.6640943,29 29,26.7614237 29,24 C29,21.2385763 26.6640943,19 23.7826087,19 C20.901123,19 18.5652174,21.2385763 18.5652174,24 Z" id="形状" transform="translate(5.000000, 24.000000) rotate(-270.000000) translate(-5.000000, -24.000000) "></path>
            </g>
        </g>
    </g>
</svg>